<svg width="100%" height="100%" viewBox="0 0 250 483" version="1.1" xmlns="http://www.w3.org/2000/svg" xmlns:xlink="http://www.w3.org/1999/xlink" xml:space="preserve" xmlns:serif="http://www.serif.com/" style="fill-rule:evenodd;clip-rule:evenodd;stroke-linejoin:round;stroke-miterlimit:2;">
    <g id="Artboard1" transform="matrix(1,0,0,1,-174.96,-42.0307)">
        <rect x="174.96" y="42.031" width="249.698" height="482.868" style="fill:none;"/>
        <clipPath id="_clip1">
            <rect x="174.96" y="42.031" width="249.698" height="482.868"/>
        </clipPath>
        <g clip-path="url(#_clip1)">
            <g id="Layer-1" serif:id="Layer 1" transform="matrix(1.22663,0,0,1.22663,-68.3659,2.80929)">
                <g transform="matrix(1,0,0,1,324.719,99.2899)">
                    <path d="M0,-45.92L-2.575,-47.895L-5.15,-45.92L-4.16,-49.106L-6.742,-51.07L-3.554,-51.064L-2.575,-54.253L-1.596,-51.064L1.592,-51.07L-0.991,-49.106L0,-45.92ZM-10.447,-49.921L-13.022,-51.896L-15.597,-49.921L-14.606,-53.107L-17.188,-55.071L-14.001,-55.065L-13.022,-58.255L-12.043,-55.065L-8.855,-55.071L-11.437,-53.107L-10.447,-49.921ZM-20.961,-51.993L-24.145,-54.435L-27.328,-51.993L-26.103,-55.93L-29.295,-58.359L-25.355,-58.351L-24.145,-62.294L-22.934,-58.351L-18.994,-58.359L-22.186,-55.93L-20.961,-51.993ZM-32.692,-49.921L-35.267,-51.896L-37.842,-49.921L-36.852,-53.107L-39.434,-55.071L-36.247,-55.065L-35.267,-58.255L-34.288,-55.065L-31.101,-55.071L-33.683,-53.107L-32.692,-49.921ZM-43.139,-45.92L-45.714,-47.895L-48.289,-45.92L-47.298,-49.106L-49.881,-51.07L-46.693,-51.064L-45.714,-54.253L-44.735,-51.064L-41.547,-51.07L-44.13,-49.106L-43.139,-45.92ZM20.185,-22.96C20.185,-47.443 0.338,-67.29 -24.145,-67.29C-48.627,-67.29 -68.475,-47.443 -68.475,-22.96C-68.475,-17.799 -67.592,-12.844 -65.97,-8.238L-45.16,-20.629L-65.006,-5.744C-63.996,-3.35 -62.781,-1.063 -61.384,1.095L-42.735,-16.141C-42.697,-16.058 -42.658,-15.976 -42.619,-15.894L-59.646,3.587C-57.375,6.619 -54.725,9.351 -51.766,11.711L-38.345,-9.858C-38.108,-9.624 -37.866,-9.395 -37.619,-9.172L-48.769,13.903C-45.503,16.089 -41.93,17.854 -38.128,19.117L-30.577,-4.943C-30.362,-4.865 -30.14,-4.801 -29.921,-4.73C-38.458,-7.515 -44.659,-15.556 -44.659,-25.002C-44.659,-36.745 -35.081,-46.323 -23.338,-46.323C-11.596,-46.323 -2.018,-36.745 -2.018,-25.002C-2.018,-13.259 -11.596,-3.682 -23.338,-3.682C-25.508,-3.682 -27.603,-4.011 -29.578,-4.618C-29.487,-4.59 -29.398,-4.556 -29.305,-4.529L-34.259,20.21C-31.01,20.968 -27.624,21.37 -24.145,21.37C-19.999,21.37 -15.987,20.8 -12.182,19.735L-17.059,-4.622C-16.634,-4.753 -16.216,-4.897 -15.803,-5.053L-8.413,18.494C-4.7,17.084 -1.226,15.189 1.933,12.887L-8.828,-9.383C-8.59,-9.604 -8.357,-9.831 -8.129,-10.063L4.758,10.647C7.583,8.216 10.098,5.434 12.237,2.37L-3.942,-16.14C-3.909,-16.213 -3.877,-16.285 -3.845,-16.357L13.807,-0.043C15.114,-2.202 16.242,-4.482 17.17,-6.862L-1.186,-20.629L18.007,-9.201C19.421,-13.532 20.185,-18.156 20.185,-22.96" style="fill:rgb(49,114,71);"/>
                </g>
                <g transform="matrix(1,0,0,1,304.282,68.2926)">
                    <path d="M9.924,5.995L-9.924,17.555L-9.924,-5.565L9.924,5.995ZM-3.034,-12.45C-13.161,-12.45 -21.371,-4.24 -21.371,5.887C-21.371,16.015 -13.161,24.225 -3.034,24.225C7.094,24.225 15.304,16.015 15.304,5.887C15.304,-4.24 7.094,-12.45 -3.034,-12.45" style="fill:rgb(49,114,71);"/>
                </g>
                <g transform="matrix(1,0,0,1,224.438,32.0789)">
                    <path d="M0,40.406C0,40.406 21.339,18.173 42.686,15.159C42.686,15.159 54.005,1.937 72.322,0C72.322,0 27.495,0.385 0,40.406" style="fill:rgb(197,160,70);"/>
                </g>
                <g transform="matrix(1,0,0,1,208.958,62.0731)">
                    <path d="M0,44.848C0,44.848 18.988,16.177 47.348,16.615C47.348,16.615 46.807,6.527 49.628,0C49.628,0 6.76,5.909 0,44.848" style="fill:rgb(197,160,70);"/>
                </g>
                <g transform="matrix(1,0,0,1,206.141,89.3398)">
                    <path d="M0,45.271C0,45.271 18.523,4.983 63.149,18.394C63.149,18.394 55.743,11.346 52.152,0.35C52.152,0.35 4.469,0 0,45.271" style="fill:rgb(197,160,70);"/>
                </g>
                <g transform="matrix(1,0,0,1,341.338,163.728)">
                    <path d="M0,-122.037C0,-122.037 31.08,-83.906 -4.903,-46.762C-4.903,-46.762 46.32,-58.4 48.566,0C48.566,0 76.116,-76.709 0,-122.037" style="fill:rgb(49,114,71);"/>
                </g>
                <g transform="matrix(1,0,0,1,346.677,196.114)">
                    <path d="M0,-65.104C-17.978,-65.104 -32.552,-50.53 -32.552,-32.552C-32.552,-14.574 -17.978,0 0,0C17.978,0 32.552,-14.574 32.552,-32.552C32.552,-50.53 17.978,-65.104 0,-65.104M0,-74.622C23.235,-74.622 42.07,-55.787 42.07,-32.552C42.07,-9.318 23.235,9.518 0,9.518C-23.234,9.518 -42.07,-9.318 -42.07,-32.552C-42.07,-55.787 -23.234,-74.622 0,-74.622" style="fill:rgb(197,160,70);"/>
                </g>
                <g transform="matrix(1,0,0,1,253.946,224.222)">
                    <path d="M0,-98.667C-17.978,-98.667 -32.552,-84.093 -32.552,-66.115C-32.552,-48.137 -17.978,-33.563 0,-33.563C17.978,-33.563 32.552,-48.137 32.552,-66.115C32.552,-84.093 17.978,-98.667 0,-98.667M0,-108.185C23.234,-108.185 40.677,-87.028 40.677,-63.794C49.242,-5.473 100.143,-13.218 100.143,-13.218C65.589,9.518 39.592,7.762 5.924,-5.7C-14.591,-13.904 -42.07,-41.578 -42.07,-66.115C-42.07,-89.35 -23.234,-108.185 0,-108.185" style="fill:rgb(197,160,70);"/>
                </g>
                <g transform="matrix(1,0,0,1,299.602,236.607)">
                    <path d="M0,37.376C10.293,37.376 18.688,28.981 18.688,18.688C18.688,8.395 10.293,0 0,0C-10.293,0 -18.688,8.395 -18.688,18.688C-18.688,28.981 -10.293,37.376 0,37.376" style="fill:rgb(19,95,51);"/>
                </g>
                <g transform="matrix(1,0,0,1,223.046,314.291)">
                    <path d="M0,-111.396L70.905,-22.983L53.03,0C53.03,0 35.054,-16.912 0,-111.396" style="fill:rgb(19,95,51);"/>
                </g>
                <g transform="matrix(1,0,0,1,377.094,425.654)">
                    <path d="M0,-222.346C0,-222.346 -150.25,-32.716 -178.725,-0.606L-128.44,0C-128.44,0 -44.833,-96.935 0,-222.346" style="fill:rgb(197,160,70);"/>
                </g>
                <g transform="matrix(1,0,0,1,326.203,425.048)">
                    <path d="M0,-98.147C0,-98.147 -9.088,-39.985 -48.468,-0.605L-4.241,0C-4.241,0 18.781,-36.956 0,-98.147" style="fill:rgb(19,95,51);"/>
                </g>
                <g transform="matrix(1,0,0,1,335.897,425.048)">
                    <path d="M0,-83.001L66.037,0L9.694,0C9.694,0 24.84,-29.081 0,-83.001" style="fill:rgb(197,160,70);"/>
                </g>
                <g transform="matrix(1,0,0,1,234.902,154.497)">
                    <path d="M0,-16.585L10.087,-6.498L4.171,-6.401L6.886,0L-1.455,-9.02L4.316,-8.292L0,-16.585Z" style="fill:rgb(197,160,70);"/>
                </g>
                <g transform="matrix(1,0,0,1,227.225,160.142)">
                    <path d="M0,-3.169L10.044,3.42L8.597,-2.091L14.025,-1.326L5.217,-6.589L7.237,-1.438L0,-3.169Z" style="fill:rgb(197,160,70);"/>
                </g>
                <g transform="matrix(1,0,0,1,254.693,149.799)">
                    <path d="M0,-21.421L-6.722,-6.325L-0.681,-7.547L-2.065,0L3.901,-12.228L-1.407,-10.603L0,-21.421Z" style="fill:rgb(197,160,70);"/>
                </g>
                <g transform="matrix(1,0,0,1,271.514,153.816)">
                    <path d="M0,-16.576L-8.873,-6.122L-3.778,-5.687L-6.64,0L0.963,-8.346L-3.643,-8.29L0,-16.576Z" style="fill:rgb(197,160,70);"/>
                </g>
                <g transform="matrix(1,0,0,1,281.4,160.75)">
                    <path d="M0,-4.766L-11.51,3.051L-9.768,-2.646L-15.469,-1.771L-5.986,-7.817L-7.397,-2.862L0,-4.766Z" style="fill:rgb(197,160,70);"/>
                </g>
                <g transform="matrix(0.0399763,0.999201,0.999201,-0.0399763,247.651,156.62)">
                    <path d="M-0.359,-4.396L4.494,-4.396C7.326,-3.917 6.949,-0.468 4.941,-0.531C3.58,-0.574 1.81,-0.572 -0.983,-0.585C-3.099,-0.596 -2.411,-4.246 -0.359,-4.396" style="fill:rgb(197,160,70);"/>
                </g>
                <g transform="matrix(1,0,0,1,247.678,162.005)">
                    <path d="M0,-6.551L0.236,-1.023C0.954,2.181 5.121,1.593 4.947,-0.692C4.829,-2.239 4.746,-4.256 4.594,-7.435C4.538,-8.614 3.338,-8.732 2.187,-8.658C0.985,-8.582 -0.187,-8.252 0,-6.551" style="fill:rgb(197,160,70);"/>
                </g>
                <g transform="matrix(1,0,0,1,252.799,160.348)">
                    <path d="M0,-5.799L0.406,0.264C0.564,1.99 1.208,2.417 2.556,1.686C1.059,0.217 1.513,-3.453 4.349,-3.501C4.302,-4.59 4.328,-5.383 4.264,-6.875C4.208,-8.181 3.338,-8.216 2.187,-8.135C0.985,-8.05 -0.187,-7.684 0,-5.799" style="fill:rgb(197,160,70);"/>
                </g>
                <g transform="matrix(1,0,0,1,257.941,154.753)">
                    <path d="M0,-1.279L0.149,2.127L4.803,2.127C4.743,0.981 4.679,-0.402 4.594,-2.142C4.538,-3.292 3.338,-3.406 2.187,-3.335C0.985,-3.26 -0.187,-2.938 0,-1.279" style="fill:rgb(197,160,70);"/>
                </g>
                <g transform="matrix(1,0,0,1,246.316,164.299)">
                    <path d="M0,8.685C-1.1,8.501 -1.737,6.857 -2.264,5.755C-3.666,2.82 -3.526,-1.262 -3.526,-1.262L-2.614,-1.182C-0.336,1.175 0.548,-0.51 1.38,-1.372L2.022,-1.385C2.709,0.043 5.726,-0.153 6.549,-1.618L6.912,-1.601C7.582,-0.783 8.748,-1.128 9.295,-1.663C11.174,-1.487 11.121,-1.655 13.041,-0.993C13.041,-0.993 7.114,-1.388 6.611,3.837C5.923,5.981 9.96,10.348 0,8.685" style="fill:rgb(197,160,70);"/>
                </g>
                <g transform="matrix(1,0,0,1,259.537,167.356)">
                    <path d="M0,-2.997C0,-2.997 -4.549,-3.957 -5.603,-0.542C-6.658,2.874 -5.163,4.81 -5.163,4.81C-5.163,4.81 -2.392,7.139 1.511,4.18C7.599,-0.434 5.91,-10.136 3.261,-9.733L-2.071,-9.95C-5.232,-9.231 -4.652,-5.064 -2.398,-5.238C-1.551,-5.303 -0.561,-5.358 0.688,-5.42C0.865,-4.408 0.978,-2.869 0,-2.997" style="fill:rgb(197,160,70);"/>
                </g>
                <g transform="matrix(1,0,0,1,252.882,183.625)">
                    <path d="M0,-10.357L1.924,-10.357C2.687,-9.969 4.413,-9.379 6.683,-10.357L7.507,-10.357L8.23,0L-7.007,0L-6.321,-9.835C-2.233,-9.238 -0.589,-9.597 0,-10.357" style="fill:rgb(197,160,70);"/>
                </g>
                <g transform="matrix(1,0,0,1,0,-241.42)">
                    <path d="M340.663,424.938L352.014,424.938L352.014,419.548L340.663,419.548L340.663,424.938ZM336.769,383.207C336.769,383.207 335.544,393.661 342.731,400.194C342.731,400.194 338.263,395.342 338.076,384.432C338.076,384.432 338.061,380.255 336.769,383.207M334.319,380.267L346.272,380.226L346.406,380.226L358.359,380.267C358.419,381.47 358.424,382.612 358.384,383.697L364.944,383.697L364.944,385.494C362.739,396.6 354.082,399.377 354.082,399.377L355.062,397.581C361.909,392.405 362.888,387.406 362.992,385.494L358.273,385.494C357.307,396.454 351.504,401.078 349.866,403.215C347.987,405.665 348.151,407.87 348.151,410.075C348.151,412.28 348.395,412.77 349.539,414.894C350.682,417.017 354.357,418.895 354.357,418.895L354.275,425.102L355.909,425.837L355.99,428.123L346.339,427.962L336.687,428.123L336.769,425.837L338.402,425.102L338.321,418.895C338.321,418.895 341.996,417.017 343.139,414.894C344.282,412.77 344.527,412.28 344.527,410.075C344.527,407.87 344.691,405.665 342.812,403.215C341.174,401.078 335.371,396.454 334.405,385.494L329.696,385.494C329.8,387.406 330.779,392.405 337.626,397.581L338.605,399.377C338.605,399.377 329.949,396.6 327.744,385.494L327.744,383.697L334.294,383.697C334.254,382.612 334.259,381.47 334.319,380.267" style="fill:rgb(197,160,70);"/>
                </g>
                <g transform="matrix(0.931868,-0.362797,-0.362797,-0.931868,355.061,178.157)">
                    <path d="M1.796,0.651L3.585,0.651L3.466,-9.557L1.707,-9.574L1.796,0.651Z" style="fill:rgb(197,160,70);"/>
                </g>
                <g transform="matrix(1,0,0,1,354.663,168.903)">
                    <path d="M0,5.862C0,5.862 1.32,7.303 4.122,6.182L8.283,16.506L14.325,14.905L8.523,1.42C8.523,1.42 8.323,0.98 8.443,-0.5C8.765,-4.469 5.439,-10.644 0.64,-9.183C0.64,-9.183 -0.2,-8.343 -0.36,-7.223C-0.52,-6.102 -0.88,-4.902 -0.88,-4.902C-0.88,-4.902 1.041,-3.422 2.201,-5.062L2.641,-6.062C2.641,-6.062 3.641,-4.462 3.441,-2.861C3.241,-1.261 3.761,0.66 0,5.862" style="fill:rgb(197,160,70);"/>
                </g>
                <g transform="matrix(1,0,0,1,351.439,173.716)">
                    <path d="M0,-3.519L3.35,-2.478C3.35,-2.478 4.389,-1.859 3.604,-0.93C2.818,0 2.171,-0.082 1.071,-0.376C-0.029,-0.671 -1.106,-1.247 -1.106,-1.247C-1.106,-1.247 -2.112,-3.311 0,-3.519" style="fill:rgb(197,160,70);"/>
                </g>
                <g transform="matrix(1,0,0,1,351.483,171.248)">
                    <path d="M0,-4.304L4.125,-3.068C4.125,-3.068 5.413,-2.259 4.987,-1.13C4.561,0 3.555,-0.282 2.455,-0.576C1.355,-0.871 -1.123,-1.847 -1.123,-1.847C-1.123,-1.847 -2.112,-4.097 0,-4.304" style="fill:rgb(197,160,70);"/>
                </g>
                <g transform="matrix(1,0,0,1,351.656,168.115)">
                    <path d="M0,-4.224L4.516,-3.052C4.516,-3.052 5.828,-2.284 5.439,-1.142C5.049,0 3.681,-0.317 2.572,-0.576C1.463,-0.835 -1.044,-1.733 -1.044,-1.733C-1.044,-1.733 -2.104,-3.95 0,-4.224" style="fill:rgb(197,160,70);"/>
                </g>
                <g transform="matrix(1,0,0,1,352.862,163.927)">
                    <path d="M0,-2.889L1.128,-2.656C1.038,-2.455 0.967,-2.24 0.928,-2.016C0.795,-1.254 0.552,-0.448 0.405,0C-0.494,-0.227 -1.12,-0.351 -1.12,-0.351C-1.12,-0.351 -2.335,-2.506 0,-2.889" style="fill:rgb(197,160,70);"/>
                </g>
                <g transform="matrix(-0.931868,-0.362797,-0.362797,0.931868,330.017,184.552)">
                    <path d="M-3.464,-9.562L-1.675,-9.562L-1.794,0.646L-3.553,0.663L-3.464,-9.562Z" style="fill:rgb(197,160,70);"/>
                </g>
                <g transform="matrix(1,0,0,1,338.551,168.903)">
                    <path d="M0,5.862C0,5.862 -1.321,7.303 -4.122,6.182L-8.283,16.506L-14.325,14.905L-8.523,1.42C-8.523,1.42 -8.323,0.98 -8.443,-0.5C-8.765,-4.469 -5.439,-10.644 -0.64,-9.183C-0.64,-9.183 0.2,-8.343 0.36,-7.223C0.52,-6.102 0.88,-4.902 0.88,-4.902C0.88,-4.902 -1.041,-3.422 -2.201,-5.062L-2.641,-6.062C-2.641,-6.062 -3.641,-4.462 -3.441,-2.861C-3.241,-1.261 -3.761,0.66 0,5.862" style="fill:rgb(197,160,70);"/>
                </g>
                <g transform="matrix(1,0,0,1,341.774,173.716)">
                    <path d="M0,-3.519L-3.35,-2.478C-3.35,-2.478 -4.389,-1.859 -3.603,-0.93C-2.818,0 -2.171,-0.082 -1.071,-0.376C0.029,-0.671 1.106,-1.247 1.106,-1.247C1.106,-1.247 2.112,-3.311 0,-3.519" style="fill:rgb(197,160,70);"/>
                </g>
                <g transform="matrix(1,0,0,1,341.73,171.248)">
                    <path d="M0,-4.304L-4.125,-3.068C-4.125,-3.068 -5.413,-2.259 -4.987,-1.13C-4.561,0 -3.555,-0.282 -2.455,-0.576C-1.355,-0.871 1.123,-1.847 1.123,-1.847C1.123,-1.847 2.112,-4.097 0,-4.304" style="fill:rgb(197,160,70);"/>
                </g>
                <g transform="matrix(1,0,0,1,341.557,168.115)">
                    <path d="M0,-4.224L-4.516,-3.052C-4.516,-3.052 -5.828,-2.284 -5.439,-1.142C-5.049,0 -3.681,-0.317 -2.572,-0.576C-1.463,-0.835 1.044,-1.733 1.044,-1.733C1.044,-1.733 2.105,-3.95 0,-4.224" style="fill:rgb(197,160,70);"/>
                </g>
                <g transform="matrix(1,0,0,1,340.351,163.927)">
                    <path d="M0,-2.889L-1.128,-2.656C-1.039,-2.455 -0.967,-2.24 -0.928,-2.016C-0.795,-1.254 -0.552,-0.448 -0.406,0C0.494,-0.227 1.12,-0.351 1.12,-0.351C1.12,-0.351 2.335,-2.506 0,-2.889" style="fill:rgb(197,160,70);"/>
                </g>
            </g>
        </g>
    </g>
</svg>
