<?xml version="1.0" encoding="UTF-8" standalone="no"?><!DOCTYPE svg PUBLIC "-//W3C//DTD SVG 1.1//EN" "http://www.w3.org/Graphics/SVG/1.1/DTD/svg11.dtd"><svg width="100%" height="100%" viewBox="0 0 541 291" version="1.1" xmlns="http://www.w3.org/2000/svg" xmlns:xlink="http://www.w3.org/1999/xlink" xml:space="preserve" xmlns:serif="http://www.serif.com/" style="fill-rule:evenodd;clip-rule:evenodd;stroke-linejoin:round;stroke-miterlimit:2;"><path d="M112.008,179.478l19.963,-9.469c6.618,-3.231 13.268,-6.388 19.856,-9.688c13.206,-6.525 26.35,-13.187 39.312,-20.231c-13.706,5.456 -27.237,11.288 -40.706,17.25c-6.756,2.95 -13.437,6.038 -20.156,9.056l-20.056,9.269c-13.319,6.281 -26.619,12.613 -39.813,19.163c-13.206,6.525 -26.35,13.187 -39.319,20.225c13.707,-5.463 27.238,-11.294 40.707,-17.257c13.481,-5.943 26.856,-12.112 40.212,-18.318" style="fill:#c39e43;fill-rule:nonzero;"/><path d="M145.879,184.061c-10.932,4.632 -21.807,9.4 -32.532,14.557c11.363,-3.532 22.575,-7.45 33.732,-11.507c11.162,-4.037 22.243,-8.293 33.3,-12.6l16.525,-6.618c5.475,-2.288 10.981,-4.494 16.431,-6.844c10.931,-4.638 21.806,-9.406 32.531,-14.569c-11.369,3.531 -22.575,7.45 -33.731,11.506c-5.594,1.988 -11.131,4.125 -16.694,6.194l-16.606,6.413c-11.025,4.381 -22.038,8.812 -32.956,13.468" style="fill:#c39e43;fill-rule:nonzero;"/><path d="M98.7,226.015l24.456,-9.069c8.125,-3.1 16.275,-6.118 24.375,-9.293c16.219,-6.263 32.394,-12.669 48.419,-19.469c-16.631,5.15 -33.119,10.7 -49.55,16.381c-8.231,2.806 -16.413,5.756 -24.619,8.638l-24.531,8.856c-16.313,6.019 -32.613,12.075 -48.825,18.369c-16.219,6.268 -32.394,12.668 -48.425,19.462c16.631,-5.156 33.119,-10.7 49.55,-16.387c16.444,-5.663 32.806,-11.55 49.15,-17.488" style="fill:#c39e43;fill-rule:nonzero;"/><path d="M189.469,255.839c6.307,-1.938 12.638,-3.794 18.925,-5.8c12.6,-3.944 25.15,-8.025 37.594,-12.513c-12.925,2.8 -25.731,6 -38.5,9.35c-6.394,1.632 -12.75,3.419 -19.119,5.132l-19.056,5.356c-12.669,3.681 -25.325,7.412 -37.912,11.381c-12.6,3.944 -25.157,8.025 -37.594,12.506c12.919,-2.806 25.731,-6.012 38.494,-9.356c12.775,-3.325 25.481,-6.881 38.175,-10.481l18.993,-5.575Z" style="fill:#c39e43;fill-rule:nonzero;"/><path d="M317.993,195.139c1.956,-0.713 3.913,-1.431 5.869,-2.15l-0.344,9.231c-1.937,-2.3 -3.775,-4.662 -5.525,-7.081m95.919,-156.063c9.381,-3.175 20.094,-6.075 32.612,-8.825c11.988,3.3 32.4,16.3 44.232,28.169c1.668,10.519 2.781,21.706 3.318,33.325l-36.45,13.494l-41.787,-27.413l-1.925,-38.75Zm-88.2,21.463l-11.944,3.431c3.7,-5.894 7.919,-11.519 12.694,-16.781c1.325,-1.456 2.675,-2.875 4.056,-4.256c1.25,-1.25 2.525,-2.463 3.825,-3.65c2.594,-2.382 5.294,-4.625 8.063,-6.75c10.381,-7.932 21.937,-14.038 34.268,-18.125l-7.237,10.187c-15.269,7.7 -35.606,23.388 -43.725,35.944m183.15,-4.081l-11.913,-3.757c-11.631,-11.743 -32.806,-26.181 -47.737,-30.443l-7.581,-10.563c27.225,6.588 50.95,22.694 67.231,44.763m-11.85,43.187c5.95,7.981 11.987,17.213 18.381,28.106c0.725,14.369 -6.087,37.913 -13.075,50.738c-9.506,4.844 -19.819,9.369 -30.725,13.481l-24.1,-30.494l13.1,-48.35l36.419,-13.481Zm-106.138,69.575l50.032,-2.487l24.081,30.468c-5.756,8.125 -12.675,16.725 -21.056,26.163c-12.275,4.65 -36.425,6.137 -52.288,3.244c-7.55,-7.544 -15.037,-15.963 -22.319,-25.063l21.55,-32.325Zm41.725,73.663c-4.168,0.662 -8.412,1.125 -12.725,1.337c-1.893,0.094 -3.781,0.138 -5.662,0.144c-12.256,0.031 -24.256,-1.825 -35.688,-5.413l11.413,-4.093c15.462,2.843 41.356,2.106 56.494,-3.438l12.137,4.175c-8.219,3.369 -16.912,5.85 -25.969,7.288m99.113,-122.344c1.362,27.512 -6.869,53.3 -21.713,74.162l-0.356,-12.043c7.5,-13.707 14.813,-38.557 14.181,-54.819l7.657,-10.375c0.075,1.025 0.175,2.044 0.231,3.075m-97.306,-118.906l-0.094,-0.132l-1.863,-0.206c-0.093,-0.012 -0.556,-0.062 -1.25,-0.131c-6.643,-0.913 -13.437,-1.294 -20.343,-1.125c-1.057,0.012 -2.094,0.031 -3.082,0.075l-0.012,-0c-0.006,-0 -0.013,0.006 -0.019,0.006c-1.669,0.081 -3.319,0.219 -4.975,0.369c-5.206,0.456 -10.344,1.237 -15.387,2.312c-0.757,0.15 -1.213,0.25 -1.3,0.269l-1.6,0.344l-0.032,0.044c-16.85,4.012 -32.6,11.418 -46.437,21.843l-251.681,149.038l225.812,-122.969c-3.781,5.094 -7.144,10.431 -10.081,15.956l-0.069,0.019l-0.787,1.675c-3.313,6.463 -6.007,13.188 -8.138,20.106c-0.337,1.025 -0.656,2.038 -0.931,3.007c-0.044,0.156 -0.094,0.318 -0.138,0.475c-0.043,0.15 -0.081,0.312 -0.118,0.462c-0.713,2.613 -1.363,5.238 -1.907,7.888l0.119,-0.05l4.7,-2.057l0.025,-0.006l4.788,-2.094l0.025,-0.012l22.956,-10.031l4.3,-1.882l4.306,-1.881c0.275,-5.469 0.713,-11.244 1.319,-17.394c6.319,-10.193 24.681,-25.3 40.456,-33.3c10.45,1.657 21.131,3.994 32.519,7.119l1.931,38.863l-39.175,31.412l-37.394,-10.5c-0.012,-1.031 -0.012,-2.087 -0.012,-3.144c1.175,-0.556 2.356,-1.093 3.519,-1.662c13.006,-6.188 25.925,-12.581 38.587,-19.55c-13.719,4.556 -27.187,9.694 -40.562,15.031c-0.494,0.194 -0.982,0.4 -1.469,0.6c-0,-0.156 -0,-0.306 0.006,-0.456l-8.5,3.712l-6.962,3.044c-1.025,0.425 -2.044,0.85 -3.069,1.269l-14.325,6.131l-0.125,0.05l-4.5,1.925l-0.1,0.044l-0.8,0.344l-3.694,1.65l-0.125,0.056l-15.9,7.1c-0.875,0.412 -1.756,0.812 -2.631,1.219c-5.656,2.612 -11.331,5.187 -16.944,7.912c-13,6.194 -25.919,12.588 -38.587,19.55c13.718,-4.569 27.181,-9.706 40.556,-15.044c6.712,-2.618 13.331,-5.443 20,-8.168l12.669,-5.419l-0.125,1.169l0.062,0.087c-0.4,5.306 -0.512,10.656 -0.244,16.056c0.575,11.625 2.744,22.925 6.319,33.688l4.025,-1.325l3.981,-1.306c-3.343,-10.057 -5.368,-20.613 -5.906,-31.475c-0.081,-1.65 -0.112,-3.3 -0.125,-4.944l7.331,9.744c0.532,7.425 2.357,16.118 5.163,24.556l8.025,-2.638c-2.538,-7.531 -4.3,-15.493 -4.794,-22.612c4.856,-9.544 10.556,-19.306 16.988,-29.081l37.425,10.512l17.825,46.813l-21.538,32.312c-7.606,-2.369 -15.731,-5.356 -24.594,-9.044c9.8,-3.687 19.575,-7.462 29.294,-11.387c-6.65,1.787 -13.269,3.65 -19.887,5.55c-4.594,1.312 -9.182,2.644 -13.763,4c-1.35,0.4 -2.694,0.812 -4.044,1.212c-1.756,0.532 -3.518,1.057 -5.281,1.588c-0.331,0.1 -0.669,0.2 -1,0.3c-2.544,0.769 -5.081,1.544 -7.612,2.319c-1.382,0.425 -2.763,0.85 -4.144,1.275c-1.406,0.431 -2.806,0.862 -4.213,1.3c-0.925,0.287 -1.85,0.562 -2.768,0.85c-10.419,3.181 -20.757,6.581 -31.138,9.868l-31.019,10.213l-30.912,10.531c-10.269,3.619 -20.569,7.131 -30.8,10.869c-13.975,5.012 -27.919,10.137 -41.788,15.469c-6.475,2.481 -12.931,5 -19.362,7.593c21.056,-5.675 41.919,-11.937 62.712,-18.406c10.413,-3.181 20.757,-6.575 31.132,-9.869l31.025,-10.2l30.912,-10.525c10.269,-3.625 20.575,-7.131 30.8,-10.862c1.313,-0.475 2.619,-0.956 3.931,-1.425c3.95,5.694 8.388,11.094 13.3,16.144l0,0.05l1.2,1.206l0.094,0.094c0.963,0.956 1.95,1.875 2.931,2.8c0.544,0.506 1.069,1.031 1.619,1.531c0.056,0.05 0.106,0.106 0.163,0.156c0.643,0.581 1.312,1.119 1.962,1.688c0.863,0.75 1.725,1.512 2.606,2.237c0.388,0.325 0.794,0.625 1.188,0.944l0.006,-0c1.85,-0.344 3.694,-0.681 5.538,-1.013l0.006,0c1.925,-0.35 3.856,-0.675 5.787,-1.012c8.844,-1.531 17.725,-2.919 26.657,-4.081c1.075,-0.138 2.143,-0.307 3.212,-0.438c-0.919,0.319 -1.85,0.613 -2.775,0.925c-7.294,2.481 -14.619,4.806 -21.981,7c-1.775,0.525 -3.563,1.038 -5.338,1.556l-0.018,0c-1.725,0.507 -3.457,1.019 -5.182,1.513l-0.012,-0c0.05,0.037 0.1,0.075 0.15,0.106l-5.725,1.463c-2.356,0.656 -4.713,1.325 -7.069,1.968c-16.1,4.375 -32.269,8.425 -48.506,12.188c-0.181,0.037 -0.369,0.081 -0.55,0.125l-95.8,24.375l165.706,-34.806c11.369,6.837 23.681,11.768 36.544,14.725l-226.375,40.931l274.875,-39l-0.05,-0.3c12.856,-2.044 25.031,-6.006 36.237,-11.6l0.194,0.062l1.644,-0.925c0.125,-0.068 0.925,-0.518 2.137,-1.225c4.669,-2.537 9.15,-5.362 13.432,-8.45c1.881,-1.293 3.712,-2.625 5.318,-3.912c3.219,-2.569 6.457,-5.588 9.219,-8.306c0.344,-0.338 0.706,-0.657 1.044,-1c0.206,-0.2 0.394,-0.419 0.6,-0.625c3.137,-3.163 5.337,-5.6 5.506,-5.794l1.131,-1.256l-0.006,-0.238c19.944,-23.619 31.381,-54.537 29.731,-87.8c-0.212,-4.281 -0.637,-8.506 -1.262,-12.656l0.056,-0.081l-0.35,-1.819c-0.019,-0.1 -0.125,-0.619 -0.287,-1.419c-1.057,-5.931 -2.513,-11.706 -4.363,-17.306c-0.519,-1.694 -1.075,-3.35 -1.65,-4.881c-0.556,-1.482 -1.175,-2.982 -1.812,-4.457c-0.25,-0.575 -0.5,-1.143 -0.757,-1.712c-0.168,-0.381 -0.343,-0.756 -0.512,-1.138c-0.444,-0.956 -0.881,-1.887 -1.319,-2.787c-0.65,-1.369 -1.325,-2.719 -2.025,-4.063c-0.456,-0.881 -0.887,-1.7 -1.269,-2.412c-1.043,-1.969 -1.768,-3.238 -1.85,-3.381l-0.818,-1.438l-0.144,-0.044c-18.913,-30.893 -50.644,-52.881 -87.356,-58.893" style="fill:#156033;fill-rule:nonzero;"/><path d="M159.364,224.066l43.275,-14.244l43.137,-14.675c14.325,-5.044 28.7,-9.931 42.982,-15.125c3.037,-1.087 6.068,-2.194 9.106,-3.287c1.925,4.425 4.1,8.731 6.531,12.912l4.113,-1.381l4.031,-1.344c-2.525,-4.206 -4.75,-8.575 -6.725,-13.056c2.131,-0.775 4.262,-1.544 6.394,-2.325c2.137,4.812 4.575,9.275 7.243,13.062l4.782,-1.6l1.256,-0.418l2.375,-0.794c-2.725,-3.438 -5.356,-8.019 -7.694,-13.181c18.056,-6.657 36.063,-13.475 53.95,-20.632c-9.512,2.582 -18.994,5.275 -28.456,8.013c-9.156,2.644 -18.294,5.35 -27.413,8.106c-2.706,0.819 -5.418,1.625 -8.125,2.45c-2.168,0.656 -4.331,1.325 -6.5,1.994c-1.337,0.412 -2.675,0.831 -4.018,1.244c-1.35,0.418 -2.7,0.831 -4.057,1.25c-2.956,0.918 -5.925,1.825 -8.881,2.75c-14.525,4.45 -28.95,9.2 -43.431,13.8l-43.269,14.25l-43.131,14.687c-14.331,5.038 -28.706,9.938 -42.981,15.131c-4.675,1.669 -9.344,3.363 -14.013,5.057c-23.906,8.643 -47.725,17.525 -71.356,26.975c29.356,-7.988 58.45,-16.769 87.45,-25.819c14.525,-4.456 28.95,-9.194 43.425,-13.8" style="fill:#c39e43;fill-rule:nonzero;"/></svg>