<?xml version="1.0" encoding="UTF-8" standalone="no"?><!DOCTYPE svg PUBLIC "-//W3C//DTD SVG 1.1//EN" "http://www.w3.org/Graphics/SVG/1.1/DTD/svg11.dtd"><svg width="100%" height="100%" viewBox="0 0 491 303" version="1.1" xmlns="http://www.w3.org/2000/svg" xmlns:xlink="http://www.w3.org/1999/xlink" xml:space="preserve" xmlns:serif="http://www.serif.com/" style="fill-rule:evenodd;clip-rule:evenodd;stroke-linejoin:round;stroke-miterlimit:2;"><path d="M472.95,111.537c0.875,-3.456 1.581,-6.718 1.706,-9.843c0.138,-3.1 -0.2,-6.032 -1.237,-8.432c-2.013,-4.843 -6.175,-7.425 -11.088,-7.662c-4.937,-0.313 -10.493,1.819 -15.6,5.2c-0.425,0.269 -0.843,0.556 -1.262,0.844l-1.3,-1.3c-1.381,-1.369 -2.731,-2.713 -4.081,-4.057c0.481,-0.556 0.962,-1.112 1.481,-1.65c2.581,-2.681 5.656,-5.068 9.262,-6.768c3.582,-1.719 7.725,-2.732 12.038,-2.507c1.075,0.057 2.15,0.175 3.219,0.419c1.081,0.169 2.131,0.544 3.181,0.888c2.044,0.843 4.05,1.9 5.725,3.406c2.225,1.85 3.9,4.25 4.987,6.831c0.607,1.431 1.038,2.919 1.263,4.4c0.669,4.181 -0.169,8.225 -1.706,11.644c-0.613,1.344 -1.363,2.575 -2.182,3.75c-1.268,1.825 -2.737,3.462 -4.406,4.837m-27.556,134.475c-8.763,9.394 -19.3,17.332 -31.294,22.188c-5.969,2.425 -12.25,4.169 -18.662,4.887c-6.407,0.725 -12.913,0.519 -19.2,-0.687c-12.613,-2.438 -24.063,-8.838 -33.169,-17.306c10.112,7.237 21.644,12.475 33.712,13.831c12.032,1.512 24.232,-0.838 35.094,-5.85c10.856,-5.088 20.581,-12.563 28.481,-21.606c7.963,-8.988 14.313,-19.444 18.319,-30.707c4.131,-11.181 5.613,-23.293 4.544,-35.187c-0.975,-11.694 -4.638,-23.163 -10.694,-33.219c-0.112,-0.181 -0.206,-0.375 -0.319,-0.556c-0.831,-1.338 -1.718,-2.644 -2.643,-3.925c-1.113,-1.531 -2.313,-3 -3.557,-4.431c-5.568,-6.407 -12.4,-11.732 -20.237,-15.257c-8.069,-3.762 -17.025,-5.45 -26.106,-5.581c-1.919,-0.025 -3.838,0.013 -5.763,0.125c-1.375,0.075 -2.756,0.175 -4.131,0.319c1.287,-0.3 2.6,-0.55 3.906,-0.788c1.781,-0.312 3.575,-0.575 5.388,-0.756c9.362,-0.912 19.012,0.081 28.043,3.45c6,2.25 11.65,5.513 16.694,9.55c2.794,2.219 5.338,4.719 7.694,7.394c1.2,1.362 2.331,2.769 3.425,4.212c0.656,0.875 1.325,1.744 1.944,2.644c0.368,0.538 0.693,1.094 1.043,1.638c6.707,10.325 10.638,22.312 12.032,34.506c0.25,2.281 0.375,4.575 0.437,6.869c-0.025,0.393 -0.031,0.787 -0.056,1.181c-1.7,23.962 -10.631,45.519 -24.194,62.212c-0.25,0.282 -0.481,0.569 -0.731,0.85m-434.731,-88.981c0.287,-0.387 0.662,-0.619 0.956,-0.744c0.237,-0.1 0.575,-0.206 0.956,-0.206c0.494,0 1.069,0.175 1.594,0.769l8.794,9.775l0.15,0.169l36.568,40.675l25.194,28.025c0.813,0.906 1.269,2.068 1.288,3.281l0.012,0.587l0.863,50.932c0.025,1.35 -0.875,1.906 -1.413,2.118c-0.25,0.1 -0.606,0.194 -1.012,0.175c-0.463,-0.031 -0.988,-0.212 -1.475,-0.743l-66.907,-73.469c-0.743,-0.819 -1.206,-1.875 -1.293,-2.975l-4.669,-56.869c-0.056,-0.669 0.131,-1.15 0.394,-1.5m384.743,-90.019c-0.818,-0.7 -1.637,-1.4 -2.462,-2.093l-1.469,-1.294l-8.131,-7.156c-6.306,-5.725 -12.588,-11.469 -18.744,-17.363c-6.181,-5.862 -12.3,-11.775 -18.306,-17.931c7.387,4.412 14.312,9.487 21.037,14.775c6.744,5.269 13.207,10.869 19.6,16.525l7.45,6.856l1.969,1.813c0.594,0.575 1.188,1.137 1.781,1.706c1.263,1.206 2.513,2.412 3.769,3.625c1.225,1.175 2.45,2.356 3.65,3.569c6.069,6 12.019,12.125 17.669,18.612c-7.131,-4.812 -13.875,-10.081 -20.475,-15.5c-1.119,-0.9 -2.213,-1.825 -3.306,-2.75c-1.35,-1.131 -2.694,-2.256 -4.032,-3.394m63.188,-17.05c4.656,3.119 8.594,7.113 11.269,12.032c-0.557,-0.169 -1.082,-0.344 -1.625,-0.513c-4.7,-1.456 -8.963,-3.019 -13.15,-4.256c-1.425,-0.431 -2.832,-0.819 -4.232,-1.181c0.182,0.693 0.269,1.412 0.213,2.15c-0.313,4.437 -5.063,7.712 -10.613,7.318c-5.543,-0.393 -9.781,-4.306 -9.468,-8.743c0.081,-1.175 0.493,-2.257 1.131,-3.225c-1.544,-0.007 -3.094,0.018 -4.675,0.1c-4.2,0.187 -8.538,0.712 -13.256,1.143c-0.713,0.063 -1.407,0.132 -2.138,0.188c3.65,-4.238 8.431,-7.269 13.738,-9.194c5.306,-1.906 11.212,-2.575 16.937,-1.794c5.731,0.744 11.206,2.875 15.869,5.975m-260.856,10.669l3.306,-1.887l26.269,2.212l1.725,-1.675l22.712,-22.081l3.913,4.025l-22.413,21.781l86.625,77.131c6.856,-10.343 15.85,-19.068 25.925,-26.075l-88.825,-81.937l0.419,-0.406l-5.213,-5.232c15.875,-10.362 34.4,-15.993 53.344,-16.225c18.181,13.694 55.875,47.332 79.619,68.85c1.531,1.388 3.006,2.725 4.412,4.007c1.65,1.5 3.2,2.906 4.65,4.231c3.25,2.962 5.982,5.475 7.994,7.319c5.919,-0.225 11.863,0.112 17.725,1.087c0.05,0.006 0.094,0.013 0.144,0.019c2.162,0.362 4.312,0.806 6.45,1.35c1.25,0.369 2.494,0.781 3.712,1.237c0.819,0.307 1.613,0.688 2.419,1.032c0.744,0.318 1.506,0.606 2.238,0.956c1.693,0.794 3.356,1.65 4.975,2.575c2.081,1.15 4.1,2.425 6.031,3.819c4.737,5.262 8.844,11.018 12.244,17.106c-7.713,-8.169 -17.232,-14.525 -27.857,-18.094c-11.075,-3.8 -23.068,-4.706 -34.8,-3.294c-1.712,0.207 -3.418,0.463 -5.112,0.763c-0.1,0.019 -0.2,0.031 -0.3,0.044c-1.581,0.287 -3.156,0.625 -4.719,0.987c-11.756,2.75 -23.031,7.663 -33.125,14.3c-5.719,3.769 -11.062,8.1 -15.85,12.95c-2.406,2.406 -4.7,4.938 -6.8,7.606c-2.1,2.669 -3.962,5.5 -5.806,8.338l-0.088,-0.05c-0.643,1.094 -1.793,1.781 -3.05,1.781c-0.175,0 -0.35,-0.012 -0.525,-0.037l-32.15,-4.725c-0.025,-0.007 -0.05,-0.019 -0.081,-0.025l-193.587,86.681c-0.513,-0.863 -1.107,-1.681 -1.782,-2.438l-2.393,-2.662l180.331,-85.469l-186.425,78.688l-36.413,-40.5c-0.731,-34.307 124.963,-91.138 183.175,-86.5l-29.325,-27.225l-169.225,96.618l-3.837,-4.268l169.344,-96.688Zm105.668,160.388l-27.362,-14.725l-69.563,29.193l-109.343,45.313l-0.119,-7.138l179.412,-75.293l33.138,17.831l0.381,1.531c10.188,40.256 34.413,60.644 73.931,62.05c-4.568,0.431 -9.218,0.506 -13.918,0.169c-15.663,-1.106 -30.382,-6.419 -43.269,-15.506c-10.669,-10.707 -18.456,-25.182 -23.288,-43.425m186.932,-125.969c2.081,-29.356 -20.107,-54.931 -49.463,-57.013c-14.237,-1.018 -27.575,3.694 -37.787,12.157c-14.157,-13.282 -27.038,-24.394 -39.288,-32.944c-9.437,-6.594 -19.562,-11.275 -30.094,-13.919c-6.243,-1.569 -12.693,-2.6 -19.162,-3.056c-26.213,-1.856 -52.275,5.737 -73.363,21.375l-4.768,3.537l6.387,6.413l-19.281,18.744l-24.788,-2.088l-177.4,101.288c-3.65,-3.675 -8.975,-4.75 -13.781,-2.675c-5.006,2.156 -7.95,7.068 -7.506,12.5l4.669,56.868c0.275,3.35 1.668,6.563 3.931,9.044l66.912,73.469c2.432,2.669 5.763,4.1 9.2,4.1c1.557,-0 3.132,-0.294 4.65,-0.9c4.325,-1.719 7.238,-5.563 7.788,-10.069l166.8,-69.119l43.45,38.857l0.012,0.006c17.163,17.037 38.519,26.912 61.775,28.562c56.944,4.05 106.869,-43.75 111.319,-106.512c1.15,-16.225 -0.769,-32.113 -5.706,-47.219c-0.613,-1.881 -1.288,-3.744 -2.019,-5.587c9.894,-8.919 16.5,-21.519 17.513,-35.819" style="fill:#156033;fill-rule:nonzero;"/><path d="M309.315,140.32l-82.906,-73.812l-1.894,-0.163l-12.156,-1.018l77.737,72.168l19.219,2.825Z" style="fill:#c39e43;fill-rule:nonzero;"/><path d="M374.795,90.161c-5.3,-6.687 -11.062,-12.837 -16.969,-18.844c-5.937,-5.968 -12.093,-11.725 -18.512,-17.2c-6.413,-5.481 -13.088,-10.693 -20.075,-15.481c-7.019,-4.744 -14.294,-9.162 -22.113,-12.587c6.157,5.9 12.432,11.425 18.663,17.012c6.25,5.544 12.519,11.056 18.875,16.494c6.35,5.437 12.8,10.794 19.425,15.975c6.65,5.15 13.419,10.194 20.706,14.631" style="fill:#c39e43;fill-rule:nonzero;"/><path d="M19.666,215.093l14.8,-9.538c0.975,-0.437 2.125,-0.206 2.85,0.575c15.082,16.294 30.063,32.55 29.344,44.425c-0.019,0.35 -0.444,0.519 -0.712,0.3l-39.719,-28.5l55.987,61.469l-0.612,-35.975l-0.15,-8.994c-0.006,-0.081 -0.031,-0.15 -0.081,-0.206l-33.394,-37.144l-32.413,-36.056l4.069,49.563c0,0.031 0.019,0.056 0.031,0.081" style="fill:#c39e43;fill-rule:nonzero;"/></svg>