<?xml version="1.0" encoding="UTF-8" standalone="no"?><!DOCTYPE svg PUBLIC "-//W3C//DTD SVG 1.1//EN" "http://www.w3.org/Graphics/SVG/1.1/DTD/svg11.dtd"><svg width="100%" height="100%" viewBox="0 0 514 271" version="1.1" xmlns="http://www.w3.org/2000/svg" xmlns:xlink="http://www.w3.org/1999/xlink" xml:space="preserve" xmlns:serif="http://www.serif.com/" style="fill-rule:evenodd;clip-rule:evenodd;stroke-linejoin:round;stroke-miterlimit:2;"><path d="M291.114,178.962l0,-14.468c-11.543,0.462 -23.418,0.706 -35.531,0.706c-12.119,-0 -23.987,-0.244 -35.537,-0.706l-0,14.468c11.612,0.375 23.475,0.569 35.537,0.569c12.056,0 23.919,-0.194 35.531,-0.569" style="fill:#c39e43;fill-rule:nonzero;"/><path d="M184.234,162.264c-47.437,-4.043 -86.756,-12.006 -110.731,-22.2l0,21.732c30.25,7.143 68.206,12.518 110.731,15.387l0,-14.919Z" style="fill:#c39e43;fill-rule:nonzero;"/><path d="M220.048,215.243c11.613,0.375 23.475,0.569 35.531,0.569c12.063,-0 23.925,-0.194 35.538,-0.569l-0,-14.469c-11.55,0.463 -23.419,0.707 -35.538,0.707c-12.112,-0 -23.987,-0.244 -35.531,-0.707l0,14.469Z" style="fill:#c39e43;fill-rule:nonzero;"/><path d="M73.503,198.073c30.25,7.144 68.206,12.519 110.731,15.388l0,-14.919c-47.437,-4.044 -86.756,-12 -110.731,-22.194l0,21.725Z" style="fill:#c39e43;fill-rule:nonzero;"/><path d="M49.663,191.571l-0,-32.512c-0.469,-0.9 -0.844,-1.813 -1.094,-2.725l-48.569,-0c0,13.187 18.45,25.375 49.663,35.237" style="fill:#156033;fill-rule:nonzero;"/><path d="M49.663,195.503c-0.469,-0.9 -0.844,-1.806 -1.094,-2.725l-48.569,0c0,13.194 18.45,25.375 49.663,35.238l-0,-32.513Z" style="fill:#156033;fill-rule:nonzero;"/><path d="M49.663,122.775c-0.469,-0.9 -0.844,-1.806 -1.094,-2.725l-48.569,0c0,13.194 18.45,25.375 49.663,35.238l-0,-32.513Z" style="fill:#156033;fill-rule:nonzero;"/><path d="M73.503,234.52c30.25,7.144 68.206,12.519 110.731,15.394l0,-14.925c-47.437,-4.044 -86.756,-12 -110.731,-22.194l0,21.725Z" style="fill:#c39e43;fill-rule:nonzero;"/><path d="M220.048,251.69c11.613,0.375 23.475,0.569 35.531,0.569c12.063,-0 23.925,-0.194 35.538,-0.569l-0,-14.469c-11.55,0.463 -23.419,0.706 -35.538,0.706c-12.112,0 -23.987,-0.243 -35.531,-0.706l0,14.469Z" style="fill:#c39e43;fill-rule:nonzero;"/><path d="M461.501,159.056l-0,32.513c31.212,-9.863 49.662,-22.044 49.662,-35.238l-48.569,0c-0.25,0.919 -0.625,1.825 -1.093,2.725" style="fill:#156033;fill-rule:nonzero;"/><path d="M461.501,195.503l-0,32.513c31.212,-9.863 49.662,-22.044 49.662,-35.238l-48.569,0c-0.25,0.919 -0.625,1.825 -1.093,2.725" style="fill:#156033;fill-rule:nonzero;"/><path d="M461.501,122.775l-0,32.512c31.212,-9.862 49.662,-22.043 49.662,-35.237l-48.569,-0c-0.25,0.919 -0.625,1.825 -1.093,2.725" style="fill:#156033;fill-rule:nonzero;"/><path d="M326.928,213.464c42.531,-2.869 80.481,-8.244 110.731,-15.388l0,-21.731c-23.975,10.194 -63.293,18.156 -110.731,22.2l0,14.919Z" style="fill:#c39e43;fill-rule:nonzero;"/><path d="M437.659,140.065c-23.975,10.194 -63.293,18.156 -110.731,22.2l0,14.919c42.525,-2.875 80.481,-8.244 110.731,-15.394l0,-21.725Z" style="fill:#c39e43;fill-rule:nonzero;"/><path d="M326.928,249.911c42.531,-2.869 80.481,-8.244 110.731,-15.394l0,-21.725c-23.975,10.194 -63.293,18.156 -110.731,22.2l0,14.919Z" style="fill:#c39e43;fill-rule:nonzero;"/><path d="M258.182,129.237c-114.575,0 -207.463,-26.7 -207.463,-59.637c0,-22.844 44.688,-42.688 110.307,-52.706l8.406,23.393c-47.831,6.994 -84.35,19.457 -99.581,34.525c3.768,6.882 14.725,13.969 31.287,20.288c-1.4,-2.444 -2.137,-4.944 -2.137,-7.5c-0,-16.213 29.331,-30.456 73.562,-38.581l19.1,53.156l7.706,-3.1l-18.493,-51.481c21.762,-3.482 46.662,-5.544 73.181,-5.738l-0,62.05l8.25,0l-0,-62.05c26.725,0.194 51.812,2.288 73.7,5.819l-18.469,51.4l7.713,3.1l19.062,-53.063c43.944,8.144 73.05,22.338 73.05,38.488c0,2.556 -0.737,5.056 -2.137,7.5c16.562,-6.319 27.518,-13.406 31.287,-20.288c-15.181,-15.012 -51.487,-27.443 -99.062,-34.45l8.406,-23.387c65.331,10.037 109.787,29.837 109.787,52.625c0,32.937 -92.887,59.637 -207.462,59.637m-4.125,-119.262l-0,24.237c-27.119,0.157 -52.881,1.907 -76.225,4.919l-8.419,-23.45c25.744,-3.506 54.4,-5.537 84.644,-5.706m8.25,-0c30.444,0.169 59.287,2.225 85.169,5.781l-8.425,23.444c-23.482,-3.056 -49.425,-4.831 -76.744,-4.988l-0,-24.237Zm-4.125,-9.975c-127.938,-0 -233.925,27.025 -252.644,62.3l0,-7.763l-2.65,0l0,15.45c-0.187,1.157 -0.287,2.319 -0.287,3.488c-0,16.144 18.118,31.075 48.831,43.2l-0,119.331c-0,0.95 -0.775,1.725 -1.725,1.725c-0.95,0 -1.719,0.769 -1.719,1.719l0,7.587l27.456,0l0,-7.587c0,-0.95 -0.768,-1.719 -1.718,-1.719l-0.269,0c-0.95,0 -1.719,-0.775 -1.719,-1.725l0,-112.281c30.731,9.419 70,16.506 114.263,20.244l-0,114.887c-0,1.35 -1.094,2.444 -2.444,2.444c-1.35,-0 -2.444,1.094 -2.444,2.444l0,6.862l42.075,0l0,-6.862c0,-1.35 -1.094,-2.444 -2.444,-2.444l-0.018,-0c-1.35,-0 -2.444,-1.094 -2.444,-2.444l-0,-112.806c13,0.587 26.325,0.894 39.9,0.894c11.769,-0 23.35,-0.232 34.7,-0.675l-0,112.631c-0,1.325 -1.075,2.4 -2.4,2.4l-0.188,-0c-1.325,-0 -2.406,1.075 -2.406,2.4l0,6.906l42.075,0l0,-6.906c0,-1.325 -1.075,-2.4 -2.4,-2.4c-1.325,-0 -2.4,-1.075 -2.4,-2.4l0,-114.506c43.906,-3.419 83.119,-10.119 114.263,-19.119l-0,110.781c-0,0.925 -0.75,1.675 -1.675,1.675l-0.457,0c-0.925,0 -1.675,0.744 -1.675,1.669l0,7.637l27.463,0l-0,-7.637c-0,-0.925 -0.75,-1.669 -1.675,-1.669c-0.925,0 -1.675,-0.75 -1.675,-1.675l-0,-117.4c33.856,-12.462 54.031,-28.15 54.031,-45.181c0,-1.106 -0.087,-2.206 -0.256,-3.294l-0,-15.681l-2.65,-0l-0,7.856c-18.55,-35.144 -123.725,-62.112 -250.969,-62.35" style="fill:#156033;fill-rule:nonzero;"/><path d="M260.067,121.931c-26.881,0 -53.725,-2.587 -80.288,-7.731l-47.543,-9.213l47.543,-9.212c26.563,-5.144 53.407,-7.731 80.288,-7.731c25.394,-0 50.75,2.306 75.881,6.9l54.913,10.043l-54.913,10.044c-25.131,4.594 -50.487,6.9 -75.881,6.9" style="fill:#c39e43;fill-rule:nonzero;"/></svg>