<?xml version="1.0" encoding="UTF-8" standalone="no"?><!DOCTYPE svg PUBLIC "-//W3C//DTD SVG 1.1//EN" "http://www.w3.org/Graphics/SVG/1.1/DTD/svg11.dtd"><svg width="100%" height="100%" viewBox="0 0 453 372" version="1.1" xmlns="http://www.w3.org/2000/svg" xmlns:xlink="http://www.w3.org/1999/xlink" xml:space="preserve" xmlns:serif="http://www.serif.com/" style="fill-rule:evenodd;clip-rule:evenodd;stroke-linejoin:round;stroke-miterlimit:2;"><path d="M192.152,137.925l67.469,-0c3.775,-0 6.875,1 9.294,3.006c2.412,2.013 3.631,4.844 3.631,8.5c-0,3.188 -0.444,5.969 -1.331,8.325c-0.888,2.363 -2.032,4.9 -3.45,7.613l-47.813,90.131c-3.187,5.906 -8.381,8.856 -15.581,8.856c-5.194,0 -8.8,-1.712 -10.8,-5.137c-2.013,-3.425 -1.713,-7.494 0.887,-12.219l46.569,-86.413l-48.875,0c-7.912,0 -11.869,-3.775 -11.869,-11.331c0,-7.55 3.957,-11.331 11.869,-11.331m-9.775,-120.419l89.019,0c2.981,0 5.094,3.025 3.931,5.769c-6.075,14.375 -19.35,30.087 -48.437,30.087c-29.094,0 -42.369,-15.712 -48.444,-30.087c-1.163,-2.744 0.95,-5.769 3.931,-5.769m-90.706,136.763l16.387,-15.05l0,184.368l236.494,0l0,-183.787l16.194,14.875l62.219,-60.988l-60.938,-59.325c-11.069,-11.062 -25.044,-18.637 -39.606,-22.712l-33.288,-9.25c-5.743,-1.594 -11.675,-2.4 -17.637,-2.4l-89.219,-0c-5.962,-0 -11.894,0.806 -17.631,2.4l-33.288,9.25c-15.15,4.075 -28.543,12.225 -39.612,22.712l-62.025,59.188l61.95,60.719Z" style="fill:#156033;fill-rule:nonzero;"/><path d="M108.056,341.064l-0,21.837c-0,4.807 3.931,8.738 8.737,8.738l219.025,-0c4.807,-0 8.738,-3.931 8.738,-8.738l-0,-21.837l-236.5,-0Z" style="fill:#c39e43;fill-rule:nonzero;"/><path d="M449.988,119.992l-14.5,-14.113l-61.856,60.638l14.025,12.894c3.5,2.912 8.743,2.912 12.237,-0l50.094,-46.6c3.494,-3.5 4.075,-9.325 -0,-12.819" style="fill:#c39e43;fill-rule:nonzero;"/><path d="M17.077,105.62l-14.457,13.794c-3.493,3.493 -3.493,9.318 0,12.812l50.1,46.6c3.494,2.913 8.738,3.494 12.232,0l13.837,-12.719l-61.712,-60.487Z" style="fill:#c39e43;fill-rule:nonzero;"/></svg>