<?xml version="1.0" encoding="UTF-8" standalone="no"?><!DOCTYPE svg PUBLIC "-//W3C//DTD SVG 1.1//EN" "http://www.w3.org/Graphics/SVG/1.1/DTD/svg11.dtd"><svg width="100%" height="100%" viewBox="0 0 432 465" version="1.1" xmlns="http://www.w3.org/2000/svg" xmlns:xlink="http://www.w3.org/1999/xlink" xml:space="preserve" xmlns:serif="http://www.serif.com/" style="fill-rule:evenodd;clip-rule:evenodd;stroke-linejoin:round;stroke-miterlimit:2;"><path d="M431.313,423.323c0,22.913 -18.575,41.494 -41.493,41.494c-22.919,-0 -41.494,-18.581 -41.494,-41.494c-0,-22.912 18.575,-41.494 41.494,-41.494c22.918,0 41.493,18.582 41.493,41.494" style="fill:#c39e43;fill-rule:nonzero;"/><path d="M269.933,402.871c-0,-0 -11.944,4.143 -13.831,16.575c-0.788,5.187 1.468,10.375 5.818,13.356c2.838,1.95 6.8,3.7 12.069,3.994c3.263,0.181 6.469,0.831 9.25,2.525c5.15,3.143 9.831,9.15 9.831,9.15c0,-0 16.938,23.143 35.969,5.506c0,-0 8.994,-9.263 -1.4,-11.344c-6.806,-1.356 -21.3,-13.906 -21.3,-13.906c0,-0 -17.594,-16.963 -17.412,-25.856l-18.994,-0Zm-221.281,-58.663c-0,-0 -6.457,-10.807 -19.1,-10.182c-5.282,0.263 -9.95,3.482 -12.044,8.3c-1.363,3.144 -2.306,7.35 -1.556,12.532c0.468,3.212 0.462,6.462 -0.669,9.5c-2.081,5.637 -7.088,11.375 -7.088,11.375c0,-0 -19.506,21.056 1.669,36.093c0,0 10.925,6.919 10.925,-3.606c0,-6.894 9.525,-23.475 9.525,-23.475c0,0 13.194,-20.6 22.006,-22.181l-3.668,-18.356Zm162.805,-274.038l7.8,-15.912c0,0 -14,-36.95 15.4,-46.944c0,0 11.344,-14.918 36.6,-2.143c20.106,10.175 4.175,19.268 4.175,19.268l-0.034,0.237l0.033,0.007l-0.035,0.011l-2.239,15.627l-3.794,3.031l-1.137,13.381l-8,16.95c-0,0 -7.4,2.675 -11.95,-2.856l6.286,15.646c7.318,1.319 19.055,11.319 23.649,20.438l14.025,34.731l-29.113,14.044l-10.943,-16.744c-0,-0 -28.357,42.112 -37.432,57.875c-4.662,8.1 -12.025,25.45 -12.025,25.45l15.638,13.344l-0.003,0.003l41.642,35.549c6.95,5.938 11.513,14.163 12.85,23.169l16.082,108.537l-19,0l-17.869,-27.35c-10.525,-16.156 -15.488,-35.268 -14.144,-54.468l1.556,-22.219l-46.013,-15.681l0.009,0.005l-34.956,54.943c-2.475,3.894 -6.482,6.575 -11.044,7.394l-95.15,17.069l-3.669,-18.356c52.894,-45.375 87.15,-33.1 87.15,-33.1l5.394,-55.457l0.002,0.002c-4.493,-6.27 -7.599,-13.611 -9.031,-21.484c-5.55,-30.481 7.956,-45.913 7.956,-45.913l14.738,-80.162l-33.006,2.025l-12.169,-29.406c11.887,-8.225 30.337,-18.425 48.35,-17.882c27.857,0.838 50.412,6.549 53.421,7.341Zm48.706,157.605c-0.337,7.563 7.069,14.6 16.332,13.181c18.712,-2.868 18.712,-25.5 18.712,-25.5l0.531,-65.137l-3.506,-8.675l-29.106,14.044l5.219,7.968l6.675,53.032c-0,-0 -12.138,-3.769 -6.694,6.706c0.769,1.481 -8.163,4.381 -8.163,4.381Zm-163.38,-137.022l-31.756,63.281l-15.088,16.788c-0.981,1.094 -1.425,2.531 -1.25,3.987c0.469,3.944 2.125,11.657 7.944,14.132c7.937,3.375 13.837,-6.757 13.837,-6.757c0,0 7.482,10.807 11.113,7.432c3.631,-3.382 0.625,-28.15 0.625,-28.15l39.644,-51.344l-12.169,-29.413c-7.875,5.45 -12.9,10.044 -12.9,10.044Zm115.015,-20.492l0,-0l0.001,0.003l0.002,-0.006l-0.003,0.003Z" style="fill:#156033;fill-rule:nonzero;"/></svg>