<?xml version="1.0" encoding="UTF-8" standalone="no"?><!DOCTYPE svg PUBLIC "-//W3C//DTD SVG 1.1//EN" "http://www.w3.org/Graphics/SVG/1.1/DTD/svg11.dtd"><svg width="100%" height="100%" viewBox="0 0 455 246" version="1.1" xmlns="http://www.w3.org/2000/svg" xmlns:xlink="http://www.w3.org/1999/xlink" xml:space="preserve" xmlns:serif="http://www.serif.com/" style="fill-rule:evenodd;clip-rule:evenodd;stroke-linejoin:round;stroke-miterlimit:2;"><path d="M173.031,102.925l50.719,-0l-0,26.85l-50.719,-0l0,-26.85Zm0,-35.8l50.719,-0l-0,26.85l-50.719,-0l0,-26.85Zm-5.962,26.85l-49.225,-0l-0,-26.85l49.225,-0l-0,26.85Zm-0,35.8l-49.225,-0l-0,-26.85l49.225,-0l-0,26.85Zm64.137,-62.65l50.719,-0l-0,26.85l-50.719,-0l0,-26.85Zm-3.725,90.819c2.1,-0 3.725,-1.707 3.725,-3.807l0,-15.412l35.288,-0c1.081,-2.988 2.312,-4.475 3.7,-8.95l-38.988,-0l0,-26.85l50.719,-0l-0,12.85c2.981,-2.6 4.475,-5.013 7.456,-7.219l0,-5.631l6.063,-0c6.756,-4.475 14.256,-7.463 22.275,-8.95l-28.338,-0l0,-26.85l50.719,-0l-0,26.081c2.981,0.138 4.475,0.35 5.962,0.669l0,-26.75l19.644,-0c2.344,-0 4.238,-2.138 4.238,-4.475c-0,-2.338 -1.894,-4.475 -4.238,-4.475l-19.644,-0l0,-14.088c0,-2.1 -0.875,-3.806 -2.981,-3.806c-2.1,0 -2.981,1.706 -2.981,3.806l-0,14.088l-50.719,-0l0,-14.088c0,-2.1 -1.625,-3.806 -3.725,-3.806c-2.106,0 -3.731,1.706 -3.731,3.806l-0,14.088l-50.719,-0l0,-14.088c0,-2.1 -1.625,-3.806 -3.725,-3.806c-2.106,0 -3.731,1.706 -3.731,3.806l-0,14.088l-50.719,-0l0,-14.088c0,-2.1 -0.875,-3.806 -2.981,-3.806c-2.1,0 -2.981,1.706 -2.981,3.806l-0,14.088l-49.225,-0l-0,-14.088c-0,-2.1 -2.375,-3.806 -4.475,-3.806c-2.107,0 -4.475,1.706 -4.475,3.806l-0,14.088l-16.607,-0c-2.337,-0 -4.231,2.137 -4.231,4.475c0,2.337 1.894,4.475 4.231,4.475l16.607,-0l-0,26.85l-16.607,-0c-2.337,-0 -4.231,2.137 -4.231,4.475c0,2.337 1.894,4.475 4.231,4.475l16.607,-0l-0,26.85l-16.607,-0c-2.337,-0 -4.231,2.137 -4.231,4.475c0,2.337 1.894,4.475 4.231,4.475l16.607,-0l-0,15.412c-0,2.1 2.368,3.807 4.475,3.807c2.1,-0 4.475,-1.707 4.475,-3.807l-0,-15.412l49.225,-0l-0,15.412c-0,2.1 0.881,3.807 2.981,3.807c2.106,-0 2.981,-1.707 2.981,-3.807l0,-15.412l50.719,-0l-0,15.412c-0,2.1 1.625,3.807 3.731,3.807m-166.319,14.443l-35.8,42.375l0,-189.406l35.8,0l0,147.031Zm381.763,-171.893c-0.144,-0 0.262,-0.232 0.119,-0.225c-0.144,-0.007 0.262,-0.269 0.118,-0.269l-428.325,-0c-0.143,-0 -0.281,0.262 -0.425,0.269c-0.143,-0.007 -0.712,0.106 -0.856,0.106c-7.244,-0 -13.556,5.994 -13.556,13.244l-0,219.237c-0,7.25 5.437,13.125 12.681,13.125c7.244,0 12.681,-5.875 12.681,-13.125l0,-2.225c11.932,-12.725 35.044,-41.194 43.832,-51.631l193.443,-0c-0.575,-2.988 -0.962,-7.463 -1.118,-10.444l-189.919,0l-0,-143.2l313.25,0l-0,86.75c2.981,3.188 5.969,6.719 8.95,10.531l-0,-97.281l35.8,0l-0,187.956l-22.544,-26.818c-1.031,3.881 -2.6,7.631 -4.225,11.237c9.206,10.944 20.8,23.369 26.769,31.556l-0,3.569c-0,7.25 5.431,13.125 12.675,13.125c7.25,0 12.681,-5.875 12.681,-13.125l0,-219.237c0,-7.25 -4.787,-13.125 -12.031,-13.125" style="fill:#156033;fill-rule:nonzero;"/><path d="M389.323,135.74l0,14.844l-19.087,-2.257l-14.025,-22.812l1.95,-13.644l11.4,0c8.618,7.463 15.787,13.425 20.812,23.869l-1.05,-0Zm7.581,44.012l-13.556,19.288l-19.231,-2.369l-0.281,0.2l-7.325,-24.344l14.012,-21.543l19.919,2.418l6.462,26.35Zm-12.056,24.794l0,-4.5l9.044,-12.862c-2.106,6.287 -4.569,12.137 -9.044,17.362m-43.487,9.025l-26.132,-7.919l-7.1,-24.712l20.257,-16.588l25.493,9.025l7.563,25.132l0.331,-0.1l-20.412,15.162Zm-5.682,16.35c-15.2,0 -29.125,-5.412 -39.968,-14.412l1.012,0.781l2.538,-3.306l14.862,-4.775l26.606,8.062l0.107,-0.337l9.462,12.256c-4.694,1.119 -9.581,1.731 -14.619,1.731m-57.718,-38.269l2.143,-1.05l16.575,21.207l-2.093,2.725c-7.15,-6.219 -12.882,-14.025 -16.625,-22.882m-4.919,-24.368c-0,-8.663 1.762,-16.919 4.944,-24.425l5.656,2.625l1.344,26.068l-5.607,16.325l-2.443,1.194c-2.513,-6.787 -3.894,-14.125 -3.894,-21.787m32.387,-38.475l21.032,8.05l0.262,25.281l-20.4,16.706l-18.6,-8.025l-1.325,-25.631l19.031,-16.381Zm1.75,-17.3c8.55,-4.375 18.232,-6.863 28.5,-6.863c2.163,0 4.3,0.113 6.413,0.325l13.375,8.931l-1.713,12.263l-25.881,8.269l-21.3,-8.15l0.606,-14.775Zm28.5,-10.175c-36.425,-0 -65.956,29.587 -65.956,66.012c0,36.425 29.531,64.506 65.956,64.506c20.069,0 38.038,-9.593 50.132,-24.512l-0.963,-0l0,2.525c10.444,-11.494 16.194,-26.344 16.194,-42.581c-0,-36.425 -28.938,-65.95 -65.363,-65.95" style="fill:#c39e43;fill-rule:nonzero;"/></svg>