<?xml version="1.0" encoding="UTF-8" standalone="no"?><!DOCTYPE svg PUBLIC "-//W3C//DTD SVG 1.1//EN" "http://www.w3.org/Graphics/SVG/1.1/DTD/svg11.dtd"><svg width="100%" height="100%" viewBox="0 0 4125 475" version="1.1" xmlns="http://www.w3.org/2000/svg" xmlns:xlink="http://www.w3.org/1999/xlink" xml:space="preserve" xmlns:serif="http://www.serif.com/" style="fill-rule:evenodd;clip-rule:evenodd;stroke-linecap:round;stroke-linejoin:round;stroke-miterlimit:10;"><path d="M8.536,406.011l158.025,-362.562l199.069,-0l46.519,203.856l89.613,-203.856l155.969,0l-158.706,362.562l-198.381,0l-45.838,-203.856l-88.931,203.856l-157.338,0Z" style="fill:#c29d43;fill-rule:nonzero;stroke:#303030;stroke-width:1.56px;"/><path d="M935.464,286.981c0,-3.644 -0.8,-7.406 -2.394,-11.288c-1.606,-3.869 -4.681,-5.812 -9.238,-5.812l-164.181,0c-16.419,0 -31.244,-3.306 -44.462,-9.925c-13.231,-6.6 -24.519,-15.05 -33.863,-25.306c-9.356,-10.262 -16.537,-21.55 -21.55,-33.862c-5.025,-12.319 -7.525,-24.394 -7.525,-36.256c0,-10.944 3.762,-23.369 11.288,-37.281c7.525,-13.912 17.325,-27.131 29.419,-39.681c12.075,-12.537 25.756,-23.025 41.044,-31.469c15.275,-8.431 30.663,-12.656 46.175,-12.656l418.663,0c-12.775,15.513 -27.144,31.025 -43.1,46.519c-15.969,15.513 -33.981,31.019 -54.044,46.519l-270.9,0c-6.387,0 -11.625,3.419 -15.731,10.263c-4.106,6.844 -6.156,12.312 -6.156,16.419l0,3.419c0,0.463 1.025,1.488 3.075,3.081c2.056,1.6 3.769,2.85 5.131,3.762c2.281,1.825 5.475,3.537 9.581,5.131c4.1,1.6 6.381,2.394 6.837,2.394l155.975,0c17.325,0 32.256,3.537 44.806,10.6c12.538,7.075 22.8,15.969 30.781,26.681c7.975,10.719 13.906,22.231 17.788,34.544c3.869,12.312 5.819,23.719 5.819,34.206l0,4.106c0,11.863 -3.319,24.519 -9.925,37.963c-6.612,13.456 -15.281,25.887 -25.994,37.281c-10.719,11.406 -23.031,20.869 -36.937,28.394c-13.919,7.525 -28.169,11.288 -42.756,11.288l-418.663,0c2.738,-4.556 8.319,-11.856 16.763,-21.894c8.431,-10.025 17.444,-20.181 27.019,-30.438c9.581,-10.263 18.475,-19.381 26.681,-27.363c8.206,-7.975 13.219,-11.975 15.05,-11.975l279.106,0c8.206,0 13,-2.05 14.369,-6.156c1.369,-4.106 2.05,-8.431 2.05,-13l0,-8.206Z" style="fill:#c29d43;fill-rule:nonzero;stroke:#303030;stroke-width:1.56px;"/><path d="M1168.047,239.778l0,-1.369c0,-21.887 5.812,-44.463 17.444,-67.725c11.631,-23.256 27.244,-44.231 46.863,-62.931c19.6,-18.7 42.412,-34.087 68.406,-46.175c25.994,-12.081 53.356,-18.131 82.087,-18.131l338.625,0c-15.969,17.337 -31.931,33.637 -47.888,48.913c-15.969,15.287 -33.519,29.756 -52.675,43.437l-213.431,0c-7.3,0 -14.944,1.944 -22.919,5.819c-7.981,3.875 -15.625,9.006 -22.919,15.388c-7.3,6.394 -14.019,13.575 -20.181,21.55c-6.156,7.987 -10.837,15.85 -14.019,23.6c-4.106,11.869 -6.156,21.206 -6.156,28.05c0,8.669 2.731,17.9 8.206,27.706c5.475,9.812 12.419,18.806 20.863,27.019c8.438,8.213 17.787,15.05 28.05,20.525c10.263,5.469 19.944,8.206 29.075,8.206l195.644,0c-12.769,15.513 -26.913,31.363 -42.413,47.544c-15.506,16.194 -33.756,31.125 -54.725,44.806l-65.675,0c-33.75,0 -66.931,-2.5 -99.531,-7.525c-32.612,-5.013 -61.688,-13.788 -87.219,-26.337c-25.55,-12.538 -46.175,-29.519 -61.913,-50.963c-15.731,-21.431 -23.6,-48.569 -23.6,-81.406Z" style="fill:#c29d43;fill-rule:nonzero;stroke:#303030;stroke-width:1.56px;"/><path d="M2025.876,314.344l332.469,0c-12.775,14.144 -23.944,25.994 -33.525,35.575c-9.575,9.575 -19.838,19.613 -30.781,30.1c-10.944,10.494 -20.756,19.15 -29.419,25.994l-373.506,0c-15.969,0 -27.6,-4.213 -34.888,-12.656c-7.3,-8.431 -10.95,-18.812 -10.95,-31.125c0,-11.394 2.737,-23.488 8.212,-36.256c5.469,-12.769 13.219,-25.075 23.256,-36.944c8.662,-10.025 20.862,-21.206 36.6,-33.519c15.731,-12.312 32.719,-23.825 50.963,-34.544c18.237,-10.713 36.6,-19.606 55.069,-26.681c18.469,-7.069 35,-10.606 49.6,-10.606l155.969,0c4.106,-1.369 7.525,-2.619 10.263,-3.763c2.737,-1.131 5.575,-2.275 8.55,-3.419c2.963,-1.131 5.356,-2.156 7.181,-3.075c2.281,-0.913 5.019,-2.162 8.213,-3.769c3.181,-1.587 4.787,-2.619 4.787,-3.075l3.419,-3.419c5.475,-4.556 8.213,-10.713 8.213,-18.475c0,-5.469 -2.512,-8.206 -7.525,-8.206l-326.312,0c5.475,-7.288 12.2,-15.156 20.181,-23.6c7.975,-8.431 16.419,-16.762 25.312,-24.969c8.894,-8.212 17.788,-16.075 26.681,-23.6c8.894,-7.525 16.981,-14.475 24.281,-20.869l363.25,0c16.869,0 29.3,5.025 37.281,15.05c7.975,10.038 11.975,22.35 11.975,36.944c0,11.863 -2.394,23.838 -7.188,35.913c-4.787,12.088 -11.519,23.375 -20.175,33.862c-10.038,11.406 -23.156,23.375 -39.338,35.912c-16.194,12.55 -33.756,24.181 -52.675,34.888c-18.931,10.725 -37.969,19.5 -57.119,26.337c-19.156,6.844 -36.719,10.262 -52.675,10.262l-164.181,0c-4.562,0 -9.012,1.488 -13.338,4.45c-4.344,2.969 -8.106,6.275 -11.287,9.919l-15.737,22.575c0,3.194 2.962,4.788 8.894,4.788Z" style="fill:#c29d43;fill-rule:nonzero;stroke:#303030;stroke-width:1.56px;"/><path d="M3108.809,314.344l332.469,0c-12.775,14.144 -23.944,25.994 -33.525,35.575c-9.575,9.575 -19.838,19.613 -30.781,30.1c-10.944,10.494 -20.756,19.15 -29.419,25.994l-373.506,0c-15.969,0 -27.6,-4.213 -34.894,-12.656c-7.294,-8.431 -10.944,-18.812 -10.944,-31.125c0,-11.394 2.737,-23.488 8.213,-36.256c5.469,-12.769 13.219,-25.075 23.256,-36.944c8.656,-10.025 20.869,-21.206 36.6,-33.519c15.731,-12.312 32.719,-23.825 50.963,-34.544c18.237,-10.713 36.6,-19.606 55.069,-26.681c18.469,-7.069 35,-10.606 49.6,-10.606l155.969,0c4.106,-1.369 7.525,-2.619 10.263,-3.763c2.737,-1.131 5.575,-2.275 8.55,-3.419c2.963,-1.131 5.356,-2.156 7.181,-3.075c2.281,-0.913 5.019,-2.162 8.213,-3.769c3.181,-1.587 4.787,-2.619 4.787,-3.075l3.419,-3.419c5.475,-4.556 8.213,-10.713 8.213,-18.475c0,-5.469 -2.512,-8.206 -7.531,-8.206l-326.306,0c5.475,-7.288 12.2,-15.156 20.181,-23.6c7.975,-8.431 16.419,-16.762 25.312,-24.969c8.894,-8.212 17.787,-16.075 26.675,-23.6c8.9,-7.525 16.987,-14.475 24.287,-20.869l363.25,0c16.869,0 29.3,5.025 37.281,15.05c7.975,10.038 11.975,22.35 11.975,36.944c0,11.863 -2.394,23.838 -7.188,35.913c-4.787,12.088 -11.519,23.375 -20.175,33.862c-10.038,11.406 -23.156,23.375 -39.338,35.912c-16.194,12.55 -33.756,24.181 -52.675,34.888c-18.931,10.725 -37.969,19.5 -57.119,26.337c-19.156,6.844 -36.719,10.262 -52.675,10.262l-164.181,0c-4.562,0 -9.012,1.488 -13.338,4.45c-4.344,2.969 -8.106,6.275 -11.287,9.919l-15.738,22.575c0,3.194 2.963,4.788 8.894,4.788Z" style="fill:#c29d43;fill-rule:nonzero;stroke:#303030;stroke-width:1.56px;"/><path d="M3810.989,267.141l-101.244,0l4.787,6.156c7.75,10.5 15.619,19.731 23.6,27.706c7.975,7.988 17.669,11.969 29.075,11.969l47.887,0l20.519,-25.994c-1.825,-4.1 -3.762,-8.087 -5.812,-11.969c-2.05,-3.869 -8.325,-6.5 -18.812,-7.869Zm184.7,5.475c-7.294,15.969 -17.219,31.925 -29.756,47.887c-12.55,15.969 -27.019,30.331 -43.438,43.094c-16.419,12.775 -34.206,23.038 -53.362,30.788c-19.15,7.756 -38.763,11.625 -58.825,11.625c-33.756,0 -66.938,-2.5 -99.537,-7.525c-32.613,-5.013 -61.688,-13.788 -87.219,-26.337c-25.55,-12.538 -46.175,-29.519 -61.912,-50.963c-15.731,-21.431 -23.6,-48.569 -23.6,-81.406l0,-1.369c0,-21.888 5.812,-44.463 17.444,-67.725c11.631,-23.256 27.25,-44.231 46.862,-62.937c19.6,-18.694 42.413,-34.088 68.406,-46.175c25.994,-12.075 53.356,-18.125 82.088,-18.125l338.625,0c-15.969,17.338 -31.925,33.638 -47.887,48.913c-15.969,15.281 -33.519,29.756 -52.675,43.437l-213.431,0c-13.681,0 -26.337,4.45 -37.969,13.338c-11.631,8.894 -21.55,19.275 -29.756,31.125l223.694,0c24.631,4.106 41.956,11.294 51.994,21.55c10.025,10.263 15.044,23.375 15.044,39.338c0,10.037 -1.6,20.525 -4.788,31.469Z" style="fill:#c29d43;fill-rule:nonzero;stroke:#303030;stroke-width:1.56px;"/><path d="M2925.367,220.376c0,110.563 -89.625,200.188 -200.188,200.188c-110.562,0 -200.188,-89.625 -200.188,-200.188c0,-110.562 89.625,-200.188 200.188,-200.188c110.562,0 200.188,89.625 200.188,200.188" style="fill:#007343;fill-rule:nonzero;"/><path d="M2842.813,371.286c-18.387,14.369 -39.394,25.462 -62.35,32.575c-22.994,7.125 -46.638,9.894 -69.969,8.419l-2.312,-6.762c16.056,-4.15 33.537,-9.925 53.213,-17.575l11.994,-4.663l13.838,-3.337c18.694,-4.506 36.731,-9.762 53.719,-15.65l1.869,6.994Zm-154.631,-179.294l-59.081,23.95l-54.181,-27.2c1.788,-20.294 5.1,-40.225 9.856,-59.294l3.25,-13.031l10.744,-5.806c21.256,-11.494 38.625,-19.906 54.281,-26.281l41.387,44.256l-6.256,63.406Zm77.981,26.525l33.688,-54.05l59.875,-9.85c10.481,17.469 19.519,35.538 26.875,53.756l5.037,12.456l-5.281,11.012c-10.45,21.8 -19.556,38.812 -28.469,53.169l-59.506,-11.481l-32.219,-55.012Zm62.206,-108.263l-29.287,53.025l-62.275,13.65l-41.013,-48.762l9.131,-59.95c19.856,-4.569 39.831,-7.581 59.438,-8.95l13.4,-0.937l8.838,8.425c17.506,16.669 30.869,30.588 41.769,43.5m-135.037,196.656l42.344,-47.619l61.844,15.344l27.875,53.9c-13.381,15.369 -27.775,29.544 -42.825,42.175l-10.287,8.637l-12.106,-1.619c-23.956,-3.2 -42.95,-6.6 -59.363,-10.644l-7.481,-60.175Zm-142.65,-179.694c16.119,-30.594 39.55,-55.744 68.025,-73.719l5.787,4.069c-10.544,12.794 -21.287,27.738 -32.719,45.5l-6.969,10.825l-9.225,10.831c-12.469,14.625 -23.975,29.487 -34.256,44.237l-5.625,-4.563c3.669,-12.737 8.663,-25.188 14.981,-37.181m296.4,-59.144l-2.081,6.756c-15.431,-6.075 -32.963,-11.675 -53.381,-17.056l-12.456,-3.281l-13.144,-5.431c-17.769,-7.338 -35.45,-13.688 -52.663,-18.906l2.613,-6.794c2.381,-0.087 4.756,-0.137 7.137,-0.137c31.188,0 62.113,7.588 90.494,22.538c12.037,6.344 23.219,13.844 33.481,22.313m56.688,221.694l-7.05,0.113c1.012,-16.556 0.925,-34.963 -0.269,-56.044l-0.731,-12.856l1.1,-14.181c1.488,-19.162 2.062,-37.95 1.713,-55.925l7.181,0.381c1.094,3 2.112,6.031 3.069,9.1c13.312,42.975 11.438,88.206 -5.012,129.413m-315.081,39.45c10.056,16.375 20.637,31.906 31.488,46.25l-6.025,3.906c-36.806,-24.688 -63.894,-60.894 -77.194,-103.831c-0.963,-3.106 -1.85,-6.231 -2.656,-9.369l5.637,-4.231c8.912,13.994 19.806,28.831 33.162,45.181l8.138,9.963l7.45,12.131Zm15.838,56.4l-0.2,0.125l7.675,4.975c0.875,0.544 1.706,1.075 2.55,1.625c1.594,0.981 3.231,1.894 4.856,2.831c0.806,0.475 1.613,0.956 2.425,1.419c1.087,0.613 2.175,1.206 3.275,1.794c0.694,0.381 1.375,0.775 2.075,1.144c1.713,0.9 3.431,1.769 5.156,2.619c0.325,0.162 0.644,0.319 0.969,0.475c1.287,0.625 2.581,1.225 3.875,1.825c0.8,0.363 1.594,0.731 2.4,1.088c0.7,0.312 1.406,0.613 2.112,0.919c2.519,1.081 5.056,2.119 7.619,3.1c2.069,0.8 4.15,1.538 6.238,2.269c0.406,0.137 0.806,0.3 1.219,0.437c0.069,0.025 0.137,0.044 0.206,0.069c1.544,0.525 3.088,1.019 4.631,1.506c0.481,0.15 0.969,0.3 1.45,0.444c15.531,4.775 31.475,7.706 47.569,8.656l3.625,0.312l-0.05,-0.15c2.8,0.119 5.606,0.2 8.413,0.2c20.419,0 40.938,-3.081 60.994,-9.294c22.725,-7.044 43.663,-17.75 62.181,-31.569l0.031,0.113l4.431,-3.6l2.675,-2.175c0.781,-0.663 1.537,-1.288 2.325,-1.919c0.044,-0.037 0.088,-0.075 0.131,-0.113c0.906,-0.762 1.787,-1.556 2.681,-2.337c0.662,-0.581 1.325,-1.156 1.981,-1.744c1.081,-0.975 2.15,-1.969 3.213,-2.962c0.419,-0.394 0.838,-0.788 1.25,-1.188c1.156,-1.1 2.3,-2.212 3.425,-3.344c0.231,-0.225 0.456,-0.456 0.681,-0.688c3.612,-3.65 7.094,-7.444 10.431,-11.375c0.388,-0.456 0.781,-0.906 1.169,-1.369c0.762,-0.913 1.506,-1.837 2.256,-2.762c0.75,-0.931 1.494,-1.863 2.231,-2.806c0.5,-0.65 1.006,-1.3 1.5,-1.95c0.344,-0.456 0.7,-0.9 1.044,-1.356c0.906,-1.206 1.781,-2.438 2.662,-3.663c0.981,-1.387 1.956,-2.781 2.912,-4.194c0.681,-1.006 1.35,-2.013 2.013,-3.031c1.481,-2.281 2.938,-4.588 4.337,-6.938c0.131,-0.225 0.269,-0.444 0.4,-0.669c1.675,-2.825 3.263,-5.694 4.8,-8.594c0.025,-0.044 0.056,-0.094 0.081,-0.144c0.019,-0.037 0.038,-0.075 0.056,-0.119c2.225,-4.206 4.319,-8.475 6.238,-12.812c0.4,-0.956 0.75,-1.781 1.1,-2.575l3.588,-8.538l-0.2,0c15.869,-42.344 17.294,-88.475 3.694,-132.375c-0.562,-1.806 -1.2,-3.569 -1.8,-5.35l0.281,0.019l-3.294,-8.531c-0.394,-0.963 -0.756,-1.881 -1.113,-2.825c-0.325,-0.787 -0.669,-1.562 -1,-2.344c-0.05,-0.119 -0.1,-0.237 -0.15,-0.362c-1.181,-2.787 -2.425,-5.538 -3.719,-8.256c-0.469,-0.981 -0.963,-1.956 -1.45,-2.931c-0.6,-1.219 -1.219,-2.419 -1.844,-3.619c-1.106,-2.119 -2.256,-4.219 -3.438,-6.3c-0.881,-1.562 -1.806,-3.106 -2.731,-4.65c-0.287,-0.481 -0.575,-0.963 -0.862,-1.438c-1.062,-1.731 -2.144,-3.444 -3.256,-5.144c-0.1,-0.156 -0.206,-0.319 -0.312,-0.481c-6.738,-10.25 -14.369,-19.862 -22.831,-28.719c-0.056,-0.056 -0.106,-0.113 -0.162,-0.175c-2.306,-2.406 -4.656,-4.781 -7.088,-7.075c-0.244,-0.231 -0.488,-0.463 -0.738,-0.694c-1.25,-1.181 -2.512,-2.35 -3.794,-3.494c-0.644,-0.556 -1.2,-1.044 -1.744,-1.519c-0.119,-0.106 -0.25,-0.219 -0.369,-0.325l-0.862,-0.75l-6.15,-5.3l-0.062,0.2c-9.875,-7.806 -20.512,-14.788 -31.887,-20.781c-30.844,-16.256 -64.538,-24.238 -98.456,-23.731l0.056,-0.138l-4.3,0.244c-3.931,0.137 -7.869,0.431 -11.8,0.8c-0.763,0.075 -1.525,0.138 -2.281,0.219c-1.231,0.125 -2.463,0.275 -3.694,0.431c-1.188,0.144 -2.369,0.3 -3.556,0.469c-1,0.144 -2,0.281 -3.006,0.438c-2.225,0.35 -4.444,0.719 -6.662,1.138c-0.025,0.006 -0.056,0.013 -0.088,0.019c-1.744,0.331 -3.487,0.694 -5.219,1.069c-0.287,0.062 -0.575,0.125 -0.856,0.188c-1.494,0.331 -2.981,0.681 -4.469,1.044c-0.412,0.1 -0.825,0.2 -1.238,0.3c-1.4,0.356 -2.8,0.725 -4.194,1.106c-0.438,0.125 -0.875,0.238 -1.312,0.356c-1.787,0.5 -3.569,1.025 -5.344,1.575c-2.938,0.906 -5.844,1.9 -8.731,2.937c-0.513,0.188 -1.025,0.362 -1.531,0.55c-2.625,0.962 -5.225,1.987 -7.794,3.05c-0.775,0.325 -1.544,0.65 -2.312,0.975c-2.406,1.031 -4.781,2.094 -7.131,3.213c-0.919,0.431 -1.819,0.887 -2.725,1.331c-1.688,0.831 -3.356,1.687 -5.019,2.562c-1.531,0.806 -3.05,1.631 -4.562,2.475c-0.938,0.531 -1.881,1.044 -2.812,1.588c-0.35,0.212 -0.675,0.406 -0.994,0.6c-0.488,0.294 -0.956,0.569 -1.413,0.838l-2.95,1.794l-4.963,3.012l0.125,0.088c-28.362,18.769 -51.737,44.431 -68.031,75.356c-5.956,11.294 -10.781,22.975 -14.506,34.9l-0.119,-0.094l-1.244,4.644l-1.125,4.181c-0.081,0.338 -0.169,0.656 -0.25,0.981c-4.831,18.638 -7.012,37.788 -6.431,56.994c-15.125,2.937 -30.188,6.119 -45.219,9.456c-0.3,-3.45 -0.544,-6.906 -0.7,-10.369c-0.381,-7.525 -0.331,-15.056 0.075,-22.575c-3.2,0.825 -6.406,1.662 -9.625,2.506c-0.45,6.794 -0.594,13.606 -0.469,20.406c0.1,4.088 0.331,8.169 0.65,12.244c-13.287,3.031 -26.519,6.256 -39.725,9.581c-0.381,-3.881 -0.688,-7.769 -0.869,-11.662c-0.381,-6.481 -0.419,-12.969 -0.188,-19.456c-3.15,0.894 -6.331,1.806 -9.544,2.731c-0.312,5.694 -0.412,11.394 -0.319,17.094c0.119,4.619 0.406,9.231 0.819,13.838c-11.131,2.869 -22.231,5.825 -33.306,8.894c-1.037,-9.85 -1.475,-19.769 -1.256,-29.687c-3.106,0.95 -6.262,1.919 -9.456,2.906c-0.562,9.881 -0.356,19.8 0.562,29.662c-13.606,3.85 -27.188,7.806 -40.7,11.95c-70.787,21.737 -140.275,47.494 -207.975,77.162c68.619,-27.488 138.756,-50.969 209.944,-70.363c1.95,-0.531 3.919,-1.031 5.875,-1.556c11.244,-3.019 22.519,-5.925 33.812,-8.744c3.425,-0.856 6.85,-1.725 10.281,-2.562c11.081,-2.7 22.188,-5.306 33.312,-7.806c3.4,-0.762 6.806,-1.481 10.206,-2.231c13.219,-2.887 26.456,-5.669 39.725,-8.262c3.394,-0.662 6.787,-1.275 10.181,-1.919c5.856,-1.106 11.719,-2.225 17.594,-3.275c9.044,-1.619 18.1,-3.162 27.169,-4.631c0.006,0.069 0.012,0.131 0.019,0.2c0.019,0 0.037,-0.006 0.05,-0.006c1.675,-0.294 3.419,-0.588 5.219,-0.894c0.013,0 0.025,0 0.031,-0.006c1.688,-0.281 3.425,-0.569 5.206,-0.862c0.012,0 0.025,0 0.037,-0.006c2.519,-0.412 5.119,-0.831 7.806,-1.256c3.237,-0.494 6.475,-1.025 9.719,-1.494l0.031,-0.006c0.119,-0.012 0.225,-0.056 0.338,-0.081c11.3,-1.744 23.456,-3.544 35.425,-5.262c6.088,-0.875 12.125,-1.731 17.975,-2.55c6.181,-0.862 12.156,-1.688 17.756,-2.45l11.05,-5.169l58.35,25.537l4.519,63.6l-42.625,43.137c-18.756,-7.975 -36.688,-17.287 -53.35,-27.694l-11.388,-7.119l-2.206,-12.013c-4.356,-23.775 -6.994,-42.887 -8.219,-59.744l11.213,-5.25c-5.556,0.794 -11.163,1.613 -16.719,2.431c-1.763,0.262 -3.525,0.519 -5.269,0.781c-11.825,1.762 -23.225,3.525 -33.162,5.156c0,0 -0.006,0.006 -0.013,0.006c-1.787,0.294 -3.525,0.581 -5.212,0.869l-0.019,0c-1.806,0.306 -3.544,0.6 -5.219,0.894l-0.025,0.006c0.1,0.681 0.206,1.356 0.319,2.037c0.006,0.05 0.013,0.1 0.025,0.15c0.231,1.494 0.5,2.988 0.769,4.475c0.25,1.381 0.512,2.756 0.794,4.131c0.019,0.081 0.031,0.169 0.05,0.25c0.162,0.812 0.312,1.625 0.487,2.431c0.244,1.013 0.438,1.881 0.625,2.731l2.113,9.019l0.188,-0.137c0.525,1.887 1.075,3.769 1.656,5.644c13.575,43.819 40.787,80.975 77.713,106.931" style="fill:#c29d43;fill-rule:nonzero;"/><path d="M2842.813,371.286c-18.387,14.369 -39.394,25.462 -62.35,32.575c-22.994,7.125 -46.638,9.894 -69.969,8.419l-2.312,-6.762c16.056,-4.15 33.537,-9.925 53.213,-17.575l11.994,-4.663l13.838,-3.337c18.694,-4.506 36.731,-9.762 53.719,-15.65l1.869,6.994Zm-154.631,-179.294l-59.081,23.95l-54.181,-27.2c1.788,-20.294 5.1,-40.225 9.856,-59.294l3.25,-13.031l10.744,-5.806c21.256,-11.494 38.625,-19.906 54.281,-26.281l41.387,44.256l-6.256,63.406Zm77.981,26.525l33.688,-54.05l59.875,-9.85c10.481,17.469 19.519,35.538 26.875,53.756l5.037,12.456l-5.281,11.012c-10.45,21.8 -19.556,38.812 -28.469,53.169l-59.506,-11.481l-32.219,-55.012Zm62.206,-108.263l-29.287,53.025l-62.275,13.65l-41.013,-48.762l9.131,-59.95c19.856,-4.569 39.831,-7.581 59.438,-8.95l13.4,-0.937l8.838,8.425c17.506,16.669 30.869,30.588 41.769,43.5Zm-135.037,196.656l42.344,-47.619l61.844,15.344l27.875,53.9c-13.381,15.369 -27.775,29.544 -42.825,42.175l-10.287,8.637l-12.106,-1.619c-23.956,-3.2 -42.95,-6.6 -59.363,-10.644l-7.481,-60.175Zm-142.65,-179.694c16.119,-30.594 39.55,-55.744 68.025,-73.719l5.787,4.069c-10.544,12.794 -21.287,27.738 -32.719,45.5l-6.969,10.825l-9.225,10.831c-12.469,14.625 -23.975,29.487 -34.256,44.237l-5.625,-4.563c3.669,-12.737 8.663,-25.188 14.981,-37.181Zm296.4,-59.144l-2.081,6.756c-15.431,-6.075 -32.963,-11.675 -53.381,-17.056l-12.456,-3.281l-13.144,-5.431c-17.769,-7.338 -35.45,-13.688 -52.663,-18.906l2.613,-6.794c2.381,-0.087 4.756,-0.137 7.137,-0.137c31.188,0 62.113,7.588 90.494,22.538c12.037,6.344 23.219,13.844 33.481,22.313Zm56.688,221.694l-7.05,0.113c1.012,-16.556 0.925,-34.963 -0.269,-56.044l-0.731,-12.856l1.1,-14.181c1.488,-19.162 2.062,-37.95 1.713,-55.925l7.181,0.381c1.094,3 2.112,6.031 3.069,9.1c13.312,42.975 11.438,88.206 -5.012,129.413Zm-315.081,39.45c10.056,16.375 20.637,31.906 31.488,46.25l-6.025,3.906c-36.806,-24.688 -63.894,-60.894 -77.194,-103.831c-0.963,-3.106 -1.85,-6.231 -2.656,-9.369l5.637,-4.231c8.912,13.994 19.806,28.831 33.162,45.181l8.138,9.963l7.45,12.131Zm15.838,56.4l-0.2,0.125l7.675,4.975c0.875,0.544 1.706,1.075 2.55,1.625c1.594,0.981 3.231,1.894 4.856,2.831c0.806,0.475 1.613,0.956 2.425,1.419c1.087,0.613 2.175,1.206 3.275,1.794c0.694,0.381 1.375,0.775 2.075,1.144c1.713,0.9 3.431,1.769 5.156,2.619c0.325,0.162 0.644,0.319 0.969,0.475c1.287,0.625 2.581,1.225 3.875,1.825c0.8,0.363 1.594,0.731 2.4,1.088c0.7,0.312 1.406,0.613 2.112,0.919c2.519,1.081 5.056,2.119 7.619,3.1c2.069,0.8 4.15,1.538 6.238,2.269c0.406,0.137 0.806,0.3 1.219,0.437c0.069,0.025 0.137,0.044 0.206,0.069c1.544,0.525 3.088,1.019 4.631,1.506c0.481,0.15 0.969,0.3 1.45,0.444c15.531,4.775 31.475,7.706 47.569,8.656l3.625,0.312l-0.05,-0.15c2.8,0.119 5.606,0.2 8.413,0.2c20.419,0 40.938,-3.081 60.994,-9.294c22.725,-7.044 43.663,-17.75 62.181,-31.569l0.031,0.113l4.431,-3.6l2.675,-2.175c0.781,-0.663 1.537,-1.288 2.325,-1.919c0.044,-0.037 0.088,-0.075 0.131,-0.113c0.906,-0.762 1.787,-1.556 2.681,-2.337c0.662,-0.581 1.325,-1.156 1.981,-1.744c1.081,-0.975 2.15,-1.969 3.213,-2.962c0.419,-0.394 0.838,-0.788 1.25,-1.188c1.156,-1.1 2.3,-2.212 3.425,-3.344c0.231,-0.225 0.456,-0.456 0.681,-0.688c3.612,-3.65 7.094,-7.444 10.431,-11.375c0.388,-0.456 0.781,-0.906 1.169,-1.369c0.762,-0.913 1.506,-1.837 2.256,-2.762c0.75,-0.931 1.494,-1.863 2.231,-2.806c0.5,-0.65 1.006,-1.3 1.5,-1.95c0.344,-0.456 0.7,-0.9 1.044,-1.356c0.906,-1.206 1.781,-2.438 2.662,-3.663c0.981,-1.387 1.956,-2.781 2.912,-4.194c0.681,-1.006 1.35,-2.013 2.013,-3.031c1.481,-2.281 2.938,-4.588 4.337,-6.938c0.131,-0.225 0.269,-0.444 0.4,-0.669c1.675,-2.825 3.263,-5.694 4.8,-8.594c0.025,-0.044 0.056,-0.094 0.081,-0.144c0.019,-0.037 0.038,-0.075 0.056,-0.119c2.225,-4.206 4.319,-8.475 6.238,-12.812c0.4,-0.956 0.75,-1.781 1.1,-2.575l3.588,-8.538l-0.2,0c15.869,-42.344 17.294,-88.475 3.694,-132.375c-0.562,-1.806 -1.2,-3.569 -1.8,-5.35l0.281,0.019l-3.294,-8.531c-0.394,-0.963 -0.756,-1.881 -1.113,-2.825c-0.325,-0.787 -0.669,-1.562 -1,-2.344c-0.05,-0.119 -0.1,-0.237 -0.15,-0.362c-1.181,-2.787 -2.425,-5.538 -3.719,-8.256c-0.469,-0.981 -0.963,-1.956 -1.45,-2.931c-0.6,-1.219 -1.219,-2.419 -1.844,-3.619c-1.106,-2.119 -2.256,-4.219 -3.438,-6.3c-0.881,-1.562 -1.806,-3.106 -2.731,-4.65c-0.287,-0.481 -0.575,-0.963 -0.862,-1.438c-1.062,-1.731 -2.144,-3.444 -3.256,-5.144c-0.1,-0.156 -0.206,-0.319 -0.312,-0.481c-6.738,-10.25 -14.369,-19.862 -22.831,-28.719c-0.056,-0.056 -0.106,-0.113 -0.162,-0.175c-2.306,-2.406 -4.656,-4.781 -7.088,-7.075c-0.244,-0.231 -0.488,-0.463 -0.738,-0.694c-1.25,-1.181 -2.512,-2.35 -3.794,-3.494c-0.644,-0.556 -1.2,-1.044 -1.744,-1.519c-0.119,-0.106 -0.25,-0.219 -0.369,-0.325l-0.862,-0.75l-6.15,-5.3l-0.062,0.2c-9.875,-7.806 -20.512,-14.788 -31.887,-20.781c-30.844,-16.256 -64.538,-24.238 -98.456,-23.731l0.056,-0.138l-4.3,0.244c-3.931,0.137 -7.869,0.431 -11.8,0.8c-0.763,0.075 -1.525,0.138 -2.281,0.219c-1.231,0.125 -2.463,0.275 -3.694,0.431c-1.188,0.144 -2.369,0.3 -3.556,0.469c-1,0.144 -2,0.281 -3.006,0.438c-2.225,0.35 -4.444,0.719 -6.662,1.138c-0.025,0.006 -0.056,0.013 -0.088,0.019c-1.744,0.331 -3.487,0.694 -5.219,1.069c-0.287,0.062 -0.575,0.125 -0.856,0.188c-1.494,0.331 -2.981,0.681 -4.469,1.044c-0.412,0.1 -0.825,0.2 -1.238,0.3c-1.4,0.356 -2.8,0.725 -4.194,1.106c-0.438,0.125 -0.875,0.238 -1.312,0.356c-1.787,0.5 -3.569,1.025 -5.344,1.575c-2.938,0.906 -5.844,1.9 -8.731,2.937c-0.513,0.188 -1.025,0.362 -1.531,0.55c-2.625,0.962 -5.225,1.987 -7.794,3.05c-0.775,0.325 -1.544,0.65 -2.312,0.975c-2.406,1.031 -4.781,2.094 -7.131,3.213c-0.919,0.431 -1.819,0.887 -2.725,1.331c-1.688,0.831 -3.356,1.687 -5.019,2.562c-1.531,0.806 -3.05,1.631 -4.562,2.475c-0.938,0.531 -1.881,1.044 -2.812,1.588c-0.35,0.212 -0.675,0.406 -0.994,0.6c-0.488,0.294 -0.956,0.569 -1.413,0.838l-2.95,1.794l-4.963,3.012l0.125,0.088c-28.362,18.769 -51.737,44.431 -68.031,75.356c-5.956,11.294 -10.781,22.975 -14.506,34.9l-0.119,-0.094l-1.244,4.644l-1.125,4.181c-0.081,0.338 -0.169,0.656 -0.25,0.981c-4.831,18.638 -7.012,37.788 -6.431,56.994c-15.125,2.937 -30.188,6.119 -45.219,9.456c-0.3,-3.45 -0.544,-6.906 -0.7,-10.369c-0.381,-7.525 -0.331,-15.056 0.075,-22.575c-3.2,0.825 -6.406,1.662 -9.625,2.506c-0.45,6.794 -0.594,13.606 -0.469,20.406c0.1,4.088 0.331,8.169 0.65,12.244c-13.287,3.031 -26.519,6.256 -39.725,9.581c-0.381,-3.881 -0.688,-7.769 -0.869,-11.662c-0.381,-6.481 -0.419,-12.969 -0.188,-19.456c-3.15,0.894 -6.331,1.806 -9.544,2.731c-0.312,5.694 -0.412,11.394 -0.319,17.094c0.119,4.619 0.406,9.231 0.819,13.838c-11.131,2.869 -22.231,5.825 -33.306,8.894c-1.037,-9.85 -1.475,-19.769 -1.256,-29.687c-3.106,0.95 -6.262,1.919 -9.456,2.906c-0.562,9.881 -0.356,19.8 0.562,29.662c-13.606,3.85 -27.188,7.806 -40.7,11.95c-70.787,21.737 -140.275,47.494 -207.975,77.162c68.619,-27.488 138.756,-50.969 209.944,-70.363c1.95,-0.531 3.919,-1.031 5.875,-1.556c11.244,-3.019 22.519,-5.925 33.812,-8.744c3.425,-0.856 6.85,-1.725 10.281,-2.562c11.081,-2.7 22.188,-5.306 33.312,-7.806c3.4,-0.762 6.806,-1.481 10.206,-2.231c13.219,-2.887 26.456,-5.669 39.725,-8.262c3.394,-0.662 6.787,-1.275 10.181,-1.919c5.856,-1.106 11.719,-2.225 17.594,-3.275c9.044,-1.619 18.1,-3.162 27.169,-4.631c0.006,0.069 0.012,0.131 0.019,0.2c0.019,0 0.037,-0.006 0.05,-0.006c1.675,-0.294 3.419,-0.588 5.219,-0.894c0.013,0 0.025,0 0.031,-0.006c1.688,-0.281 3.425,-0.569 5.206,-0.862c0.012,0 0.025,0 0.037,-0.006c2.519,-0.412 5.119,-0.831 7.806,-1.256c3.237,-0.494 6.475,-1.025 9.719,-1.494l0.031,-0.006c0.119,-0.012 0.225,-0.056 0.338,-0.081c11.3,-1.744 23.456,-3.544 35.425,-5.262c6.088,-0.875 12.125,-1.731 17.975,-2.55c6.181,-0.862 12.156,-1.688 17.756,-2.45l11.05,-5.169l58.35,25.537l4.519,63.6l-42.625,43.137c-18.756,-7.975 -36.688,-17.287 -53.35,-27.694l-11.388,-7.119l-2.206,-12.013c-4.356,-23.775 -6.994,-42.887 -8.219,-59.744l11.213,-5.25c-5.556,0.794 -11.163,1.613 -16.719,2.431c-1.763,0.262 -3.525,0.519 -5.269,0.781c-11.825,1.762 -23.225,3.525 -33.162,5.156c0,0 -0.006,0.006 -0.013,0.006c-1.787,0.294 -3.525,0.581 -5.212,0.869l-0.019,0c-1.806,0.306 -3.544,0.6 -5.219,0.894l-0.025,0.006c0.1,0.681 0.206,1.356 0.319,2.037c0.006,0.05 0.013,0.1 0.025,0.15c0.231,1.494 0.5,2.988 0.769,4.475c0.25,1.381 0.512,2.756 0.794,4.131c0.019,0.081 0.031,0.169 0.05,0.25c0.162,0.812 0.312,1.625 0.487,2.431c0.244,1.013 0.438,1.881 0.625,2.731l2.113,9.019l0.188,-0.137c0.525,1.887 1.075,3.769 1.656,5.644c13.575,43.819 40.787,80.975 77.713,106.931Z" style="fill:none;fill-rule:nonzero;stroke:#303030;stroke-width:1.56px;"/><path d="M2511.604,348.804c4.113,6.531 8.488,12.906 13.113,19.1c21.062,27.887 47.862,51.594 78.887,69.05c-33.006,-13.469 -62.438,-36.069 -85.387,-63.906c-5.881,-7.031 -11.3,-14.444 -16.3,-22.137c3.213,-0.7 6.444,-1.4 9.688,-2.106Z" style="fill:#007343;fill-rule:nonzero;stroke:#303030;stroke-width:1.56px;"/><path d="M2472.647,189.115c0.275,-0.05 0.55,-0.1 0.819,-0.144c11.363,-1.987 22.763,-3.794 34.206,-5.344c-11.763,3.438 -23.581,6.588 -35.412,9.656c-3.169,0.825 -6.344,1.65 -9.519,2.469c-3.9,1 -7.806,2.006 -11.706,3.006c-9.425,2.494 -18.894,4.8 -28.287,7.381c-0.262,0.075 -0.531,0.144 -0.8,0.213c-3.125,0.831 -6.244,1.65 -9.363,2.487c-1.312,0.35 -2.631,0.694 -3.944,1.063c-4.706,1.25 -9.394,2.556 -14.056,3.925c-4.7,1.275 -9.381,2.588 -14.037,3.981l-2.263,0.662l-4.737,1.388l-4.381,1.344l-2.594,0.8c-4.663,1.381 -9.319,2.781 -13.938,4.3c-4.625,1.506 -9.281,2.925 -13.888,4.488c-17.381,5.731 -34.619,11.912 -51.887,18.275c-1.094,0.406 -2.194,0.806 -3.294,1.212c1.038,-0.575 2.088,-1.131 3.138,-1.694c6.781,-3.663 13.675,-7.119 20.662,-10.388c9.688,-4.531 19.537,-8.719 29.512,-12.606c4.538,-1.856 9.15,-3.525 13.769,-5.163c4.606,-1.694 9.25,-3.262 13.9,-4.819c1.838,-0.631 3.694,-1.219 5.544,-1.806c0.144,-0.963 0.244,-1.938 0.394,-2.9c3.669,-22.713 11.612,-44.806 24.169,-63.719c-8.5,20.688 -13.856,42.175 -15.819,63.919c4.594,-1.425 9.2,-2.794 13.831,-4.088c4.719,-1.325 9.456,-2.588 14.2,-3.794c2.175,-0.569 4.35,-1.131 6.531,-1.688c0.456,-3.469 1.012,-6.925 1.681,-10.362c5.169,-28.044 16.694,-54.944 34.019,-77.075c-13.594,24.556 -22.337,51.163 -25.837,78.375c-0.275,2.288 -0.519,4.575 -0.738,6.869c4.3,-1.012 8.606,-1.987 12.919,-2.931c4.769,-1.1 9.569,-2.062 14.369,-3.012c4.494,-0.906 8.994,-1.769 13.494,-2.613c0.894,-7.225 2.144,-14.4 3.838,-21.475c1.112,-4.394 2.356,-8.75 3.531,-13.119c1.425,-4.294 2.906,-8.569 4.419,-12.825l5.344,-12.444c2.069,-4.019 4.05,-8.069 6.181,-12.025c8.881,-15.669 19.925,-30.044 32.9,-42.244c-22.675,27.45 -37.975,60.088 -44.3,94.363c-1.088,6 -1.944,12.037 -2.569,18.1" style="fill:#007343;fill-rule:nonzero;"/><path d="M2472.647,189.115c0.275,-0.05 0.55,-0.1 0.819,-0.144c11.363,-1.987 22.763,-3.794 34.206,-5.344c-11.763,3.438 -23.581,6.588 -35.412,9.656c-3.169,0.825 -6.344,1.65 -9.519,2.469c-3.9,1 -7.806,2.006 -11.706,3.006c-9.425,2.494 -18.894,4.8 -28.287,7.381c-0.262,0.075 -0.531,0.144 -0.8,0.213c-3.125,0.831 -6.244,1.65 -9.363,2.487c-1.312,0.35 -2.631,0.694 -3.944,1.063c-4.706,1.25 -9.394,2.556 -14.056,3.925c-4.7,1.275 -9.381,2.588 -14.037,3.981l-2.263,0.662l-4.737,1.388l-4.381,1.344l-2.594,0.8c-4.663,1.381 -9.319,2.781 -13.938,4.3c-4.625,1.506 -9.281,2.925 -13.888,4.488c-17.381,5.731 -34.619,11.912 -51.887,18.275c-1.094,0.406 -2.194,0.806 -3.294,1.212c1.038,-0.575 2.088,-1.131 3.138,-1.694c6.781,-3.663 13.675,-7.119 20.662,-10.388c9.688,-4.531 19.537,-8.719 29.512,-12.606c4.538,-1.856 9.15,-3.525 13.769,-5.163c4.606,-1.694 9.25,-3.262 13.9,-4.819c1.838,-0.631 3.694,-1.219 5.544,-1.806c0.144,-0.963 0.244,-1.938 0.394,-2.9c3.669,-22.713 11.612,-44.806 24.169,-63.719c-8.5,20.688 -13.856,42.175 -15.819,63.919c4.594,-1.425 9.2,-2.794 13.831,-4.088c4.719,-1.325 9.456,-2.588 14.2,-3.794c2.175,-0.569 4.35,-1.131 6.531,-1.688c0.456,-3.469 1.012,-6.925 1.681,-10.362c5.169,-28.044 16.694,-54.944 34.019,-77.075c-13.594,24.556 -22.337,51.163 -25.837,78.375c-0.275,2.288 -0.519,4.575 -0.738,6.869c4.3,-1.012 8.606,-1.987 12.919,-2.931c4.769,-1.1 9.569,-2.062 14.369,-3.012c4.494,-0.906 8.994,-1.769 13.494,-2.613c0.894,-7.225 2.144,-14.4 3.838,-21.475c1.112,-4.394 2.356,-8.75 3.531,-13.119c1.425,-4.294 2.906,-8.569 4.419,-12.825l5.344,-12.444c2.069,-4.019 4.05,-8.069 6.181,-12.025c8.881,-15.669 19.925,-30.044 32.9,-42.244c-22.675,27.45 -37.975,60.088 -44.3,94.363c-1.088,6 -1.944,12.037 -2.569,18.1Z" style="fill:none;fill-rule:nonzero;stroke:#303030;stroke-width:1.56px;"/><path d="M2507.047,416.543c-20.55,-14.975 -38.425,-33.812 -53.006,-54.994c2.656,-0.6 5.319,-1.206 7.981,-1.8c12.594,20.475 27.769,39.475 45.025,56.794Z" style="fill:#007343;fill-rule:nonzero;stroke:#303030;stroke-width:1.56px;"/><path d="M2438.451,397.323c-9.194,-7.881 -17.544,-16.781 -25.069,-26.381c1.862,-0.438 3.725,-0.875 5.581,-1.312c5.95,9.512 12.469,18.744 19.488,27.694Z" style="fill:#007343;fill-rule:nonzero;stroke:#303030;stroke-width:1.56px;"/><path d="M2154.686,351.6c8.9,-3.4 17.894,-6.519 26.856,-9.738c9,-3.119 18.031,-6.137 27.062,-9.15c9.069,-2.887 18.138,-5.806 27.244,-8.588c9.131,-2.706 18.231,-5.494 27.419,-8.006c18.337,-5.15 36.787,-9.925 55.456,-13.887c-17.844,6.775 -35.819,13.012 -53.819,19.144c-8.981,3.131 -18.031,6.056 -27.031,9.119l-27.069,8.944l-27.131,8.781c-9.075,2.838 -18.094,5.831 -27.194,8.606c-18.15,5.688 -36.337,11.269 -54.737,16.331c17.4,-7.837 35.106,-14.881 52.944,-21.556" style="fill:#007343;fill-rule:nonzero;"/><path d="M2154.686,351.6c8.9,-3.4 17.894,-6.519 26.856,-9.738c9,-3.119 18.031,-6.137 27.062,-9.15c9.069,-2.887 18.138,-5.806 27.244,-8.588c9.131,-2.706 18.231,-5.494 27.419,-8.006c18.337,-5.15 36.787,-9.925 55.456,-13.887c-17.844,6.775 -35.819,13.012 -53.819,19.144c-8.981,3.131 -18.031,6.056 -27.031,9.119l-27.069,8.944l-27.131,8.781c-9.075,2.838 -18.094,5.831 -27.194,8.606c-18.15,5.688 -36.337,11.269 -54.737,16.331c17.4,-7.837 35.106,-14.881 52.944,-21.556Z" style="fill:none;fill-rule:nonzero;stroke:#303030;stroke-width:1.56px;"/><path d="M2241.574,373.666c6.4,-1.988 12.838,-3.869 19.269,-5.75c6.469,-1.756 12.925,-3.538 19.419,-5.188c6.519,-1.581 13.006,-3.244 19.562,-4.638c13.088,-2.912 26.25,-5.487 39.594,-7.294c-12.631,4.65 -25.394,8.706 -38.188,12.619c-6.375,2.019 -12.812,3.819 -19.206,5.762l-19.256,5.55l-19.3,5.369c-6.469,1.694 -12.881,3.556 -19.363,5.194c-12.925,3.419 -25.881,6.75 -39.031,9.612c12.213,-5.656 24.75,-10.469 37.412,-14.894c6.312,-2.275 12.713,-4.263 19.088,-6.344" style="fill:#007343;fill-rule:nonzero;"/><path d="M2241.574,373.666c6.4,-1.988 12.838,-3.869 19.269,-5.75c6.469,-1.756 12.925,-3.538 19.419,-5.188c6.519,-1.581 13.006,-3.244 19.562,-4.638c13.088,-2.912 26.25,-5.487 39.594,-7.294c-12.631,4.65 -25.394,8.706 -38.188,12.619c-6.375,2.019 -12.812,3.819 -19.206,5.762l-19.256,5.55l-19.3,5.369c-6.469,1.694 -12.881,3.556 -19.363,5.194c-12.925,3.419 -25.881,6.75 -39.031,9.612c12.213,-5.656 24.75,-10.469 37.412,-14.894c6.312,-2.275 12.713,-4.263 19.088,-6.344Z" style="fill:none;fill-rule:nonzero;stroke:#303030;stroke-width:1.56px;"/><path d="M2401.199,353.634c-1.931,-3.056 -3.812,-6.15 -5.594,-9.3c-11.225,-20.025 -19.319,-41.919 -23.7,-64.575c-0.156,-0.812 -0.275,-1.625 -0.419,-2.438c3.438,-0.887 6.869,-1.775 10.3,-2.637c0.188,1.019 0.344,2.037 0.544,3.056c4.2,21.625 11.213,42.713 20.694,62.756c1.825,3.875 3.775,7.694 5.781,11.488c11.569,-2.456 23.175,-4.725 34.819,-6.794c-5.219,-9.044 -9.806,-18.456 -13.9,-28.081c-5.481,-13.163 -9.744,-26.844 -12.894,-40.775c-0.681,-3.194 -1.287,-6.4 -1.844,-9.613c3.431,-0.781 6.85,-1.519 10.269,-2.269c0.581,3.219 1.225,6.425 1.944,9.613c2.819,13.394 6.875,26.519 11.825,39.306c3.913,10.35 8.631,20.387 13.812,30.2c5.906,-0.988 11.812,-1.931 17.731,-2.812c7.762,-1.119 15.537,-2.156 23.325,-3.069c-1.856,-3.262 -3.662,-6.562 -5.394,-9.9c-8.188,-16.15 -14.625,-33.194 -19.256,-50.725c-1.725,-6.831 -3.181,-13.738 -4.344,-20.694c3.419,-0.644 6.844,-1.306 10.244,-1.919c1.181,6.706 2.631,13.369 4.375,19.956c4.281,16.85 10.381,33.244 17.988,48.906c2.137,4.488 4.431,8.894 6.844,13.238c7.287,-0.737 14.594,-1.337 21.912,-1.775c3.338,-0.2 6.675,-0.375 10.019,-0.5c-9.788,2.375 -19.569,4.637 -29.344,6.85c-3.25,0.738 -6.5,1.469 -9.744,2.2c-8.375,1.875 -16.75,3.737 -25.113,5.619l-14.556,3.188l-8.519,1.869l-34.85,7.644l-6.231,1.363c-0.131,0.031 -0.256,0.056 -0.381,0.081c-17.175,3.719 -34.375,7.331 -51.6,10.856c-4.119,0.844 -8.225,1.713 -12.35,2.538c-21.513,4.25 -43.062,8.425 -64.881,11.644c20.725,-7.531 41.775,-13.869 62.95,-19.769c19.713,-5.431 39.562,-10.338 59.537,-14.725Z" style="fill:#007343;fill-rule:nonzero;stroke:#303030;stroke-width:1.56px;"/></svg>